# This file uses centimeters as units for non-parametric coordinates.

mtllib montaña_low.mtl
g default
v 5.505109 -3.688825 -22.706440
v 5.519401 -3.497024 22.183441
v 22.933277 -2.996412 6.580567
v -21.403528 -4.603711 7.972750
v 9.789977 21.261255 14.071423
v 2.967411 20.368109 -17.736219
v 11.457483 22.136585 -12.170012
v -15.860358 22.215431 -7.707325
v -21.684286 -3.998781 -7.995489
v 0.155913 40.300488 2.058511
v -11.728157 27.987944 7.689317
v 17.233749 1.317698 -13.879556
v 18.645887 19.582996 0.920361
v -5.585270 -4.110990 22.430740
v -7.427680 21.500099 15.920897
v -19.145596 20.979078 -0.003800
v -5.026629 20.974962 -16.612602
v -0.120510 20.340952 17.587576
v 13.948711 4.266597 15.227915
v -12.853877 -4.187113 -19.125923
v 14.859323 -3.367086 -11.757767
v 0.623441 -3.905343 -1.469939
vt 0.072985 0.157085
vt 0.052155 0.304026
vt 0.704479 0.508221
vt 0.608460 0.555299
vt 0.692154 0.440438
vt 0.619094 0.649728
vt 0.443931 0.479157
vt 0.672378 0.322187
vt 0.176225 0.459681
vt 0.170221 0.067896
vt 0.195416 0.887399
vt 0.241356 0.664272
vt 0.354553 0.745131
vt 0.643134 0.259643
vt 0.461086 0.355930
vt 0.343872 0.061895
vt 0.488889 0.716072
vt 0.517794 0.871831
vt 0.413717 0.175965
vt 0.278579 0.473632
vt 0.268043 0.249526
vt 0.573680 0.693252
vt 0.702740 0.052604
vt 0.201117 0.942401
vt 0.748477 0.021981
vt 0.406395 0.966758
vt 0.939400 0.471560
vt 0.919231 0.320243
vt 0.758005 0.839087
vt 0.655815 0.905004
vt 0.905783 0.652461
vt 0.555425 0.220198
vt 0.838110 0.138208
vn 0.044824 -0.998963 0.007967
vn 0.030453 -0.999536 -0.000704
vn 0.038124 -0.999247 0.007169
vn -0.670612 0.137064 0.729035
vn -0.670612 0.137064 0.729035
vn -0.670612 0.137064 0.729035
vn -0.193152 0.156829 -0.968554
vn -0.193152 0.156829 -0.968554
vn -0.193152 0.156829 -0.968554
vn 0.667097 -0.058962 0.742634
vn 0.667097 -0.058962 0.742634
vn 0.667097 -0.058962 0.742634
vn 0.944228 -0.093277 -0.315805
vn 0.724148 -0.553408 -0.411520
vn 0.637014 -0.561880 -0.527734
vn -0.412339 0.687783 -0.597437
vn -0.412339 0.687783 -0.597437
vn -0.412339 0.687783 -0.597437
vn 0.774693 0.288193 0.562846
vn 0.774693 0.288193 0.562846
vn 0.774693 0.288193 0.562846
vn 0.150044 0.665853 -0.730839
vn 0.150044 0.665854 -0.730839
vn 0.150044 0.665853 -0.730839
vn 0.505366 0.208964 -0.837221
vn 0.505366 0.208964 -0.837221
vn 0.505366 0.208964 -0.837221
vn -0.618194 0.145833 -0.772379
vn -0.618194 0.145833 -0.772379
vn -0.618194 0.145833 -0.772379
vn -0.799257 0.242056 0.550089
vn -0.799257 0.242056 0.550089
vn -0.799257 0.242056 0.550089
vn -0.995310 0.094417 0.021077
vn -0.995310 0.094417 0.021077
vn -0.995310 0.094417 0.021077
vn -0.709095 0.703834 0.042452
vn -0.709095 0.703834 0.042452
vn -0.709095 0.703834 0.042452
vn 0.696782 0.600296 0.392606
vn 0.696782 0.600296 0.392606
vn 0.696782 0.600296 0.392606
vn 0.451940 0.270794 0.849954
vn 0.451940 0.270794 0.849954
vn 0.451940 0.270794 0.849954
vn 0.218314 0.597366 0.771682
vn 0.218314 0.597366 0.771682
vn 0.218314 0.597366 0.771682
vn 0.522761 0.225022 -0.822245
vn 0.522761 0.225022 -0.822244
vn 0.522761 0.225022 -0.822245
vn 0.712288 0.650223 -0.264302
vn 0.712288 0.650223 -0.264302
vn 0.712288 0.650223 -0.264302
vn 0.864464 0.274433 -0.421174
vn 0.864464 0.274433 -0.421174
vn 0.864464 0.274433 -0.421174
vn 0.007930 0.246875 0.969015
vn 0.007930 0.246875 0.969015
vn 0.007930 0.246875 0.969015
vn -0.341589 0.643128 0.685349
vn -0.341589 0.643128 0.685349
vn -0.341589 0.643128 0.685349
vn -0.773315 0.234693 0.588985
vn -0.773315 0.234693 0.588985
vn -0.773315 0.234693 0.588985
vn -0.911553 0.206426 -0.355610
vn -0.911553 0.206426 -0.355610
vn -0.911553 0.206426 -0.355610
vn -0.686321 0.704781 -0.179576
vn -0.686321 0.704781 -0.179576
vn -0.686321 0.704781 -0.179576
vn -0.122659 0.188376 -0.974407
vn -0.122659 0.188376 -0.974407
vn -0.122659 0.188376 -0.974407
vn 0.024233 0.941516 -0.336097
vn 0.024233 0.941516 -0.336097
vn 0.024233 0.941516 -0.336097
vn -0.199040 0.139911 0.969953
vn -0.199040 0.139911 0.969953
vn -0.199040 0.139911 0.969953
vn -0.082094 0.612699 0.786041
vn -0.082094 0.612699 0.786041
vn -0.082094 0.612699 0.786041
vn 0.819706 0.236102 0.521860
vn 0.819706 0.236102 0.521860
vn 0.819706 0.236102 0.521860
vn 0.319258 0.141887 0.936986
vn 0.319258 0.141887 0.936986
vn 0.319258 0.141887 0.936986
vn -0.746847 0.292001 -0.597457
vn -0.746847 0.292001 -0.597457
vn -0.746847 0.292001 -0.597457
vn 0.962478 0.121993 -0.242392
vn 0.964290 0.086089 -0.250468
vn 0.038287 -0.999267 0.000698
vn 0.041103 -0.999153 0.002080
vn 0.024415 -0.999558 -0.016972
vn 0.008223 -0.999871 -0.013792
vn 0.013009 -0.999897 0.006027
vn 0.029923 -0.999547 -0.003312
s 1
g montaña_zbrush_low:Group56310
usemtl initialShadingGroup
f 2/20/1 22/21/2 3/15/3
s off
f 15/6/4 4/31/5 14/29/6
f 1/33/7 20/28/8 17/8/9
f 19/18/10 2/30/11 3/26/12
s 2
f 12/23/13 21/25/14 1/33/15
s off
f 17/8/16 8/5/17 10/7/18
f 13/13/19 19/18/20 3/26/21
f 7/32/22 17/8/23 10/7/24
f 12/23/25 6/14/26 7/32/27
f 17/8/28 9/27/29 8/5/30
f 16/3/31 4/31/32 11/4/33
f 9/27/34 4/31/35 16/3/36
f 16/3/37 11/4/38 10/7/39
f 13/13/40 10/7/41 5/17/42
f 2/30/43 19/18/44 18/22/45
f 10/7/46 18/22/47 5/17/48
f 6/14/49 12/23/50 1/33/51
f 7/12/52 10/7/53 13/13/54
f 12/11/55 7/12/56 13/13/57
f 14/29/58 2/30/59 15/6/60
f 10/7/61 11/4/62 15/6/63
f 11/4/64 4/31/65 15/6/66
f 9/27/67 16/3/68 8/5/69
f 8/5/70 16/3/71 10/7/72
f 1/33/73 17/8/74 6/14/75
f 7/32/76 6/14/77 17/8/78
f 2/30/79 18/22/80 15/6/81
f 10/7/82 15/6/83 18/22/84
f 19/18/85 13/13/86 5/17/87
f 5/17/88 18/22/89 19/18/90
f 17/8/91 20/28/92 9/27/93
s 2
f 12/11/13 13/13/94 3/26/95
f 12/11/13 3/26/95 21/24/14
s 1
f 3/15/3 22/21/2 21/19/96
f 14/9/97 22/21/2 2/20/1
f 4/2/98 22/21/2 14/9/97
f 9/1/99 22/21/2 4/2/98
f 20/10/100 22/21/2 9/1/99
f 20/10/100 1/16/101 22/21/2
f 22/21/2 1/16/101 21/19/96
