# 3ds Max Wavefront OBJ Exporter v0.97b - (c)2007 guruware
# File Created: 13.02.2019 11:31:19

mtllib Columna Piedra Low Only.mtl

#
# object Columna_Piedra_Low_Only
#

v  15.4269 211.2700 -40.4090
v  -16.7248 211.8483 -42.4832
v  -16.7248 213.1099 -8.2573
v  17.5010 211.8483 -8.2573
v  11.0247 3.4524 -35.3592
v  -16.7248 3.4506 -36.3511
v  -16.7248 19.2085 -38.8828
v  11.3200 19.3016 -38.1913
v  -53.5999 3.4496 -36.0111
v  -53.4162 3.4517 -11.4851
v  -54.4536 17.1025 -11.6314
v  -54.7103 17.5255 -37.0119
v  -43.0542 3.4538 18.0721
v  -16.7248 3.4519 18.8446
v  -16.7248 19.1625 21.6767
v  -44.1220 19.1625 19.1399
v  9.6046 3.4538 18.0721
v  11.3587 3.4512 -8.2573
v  13.8568 19.3016 -5.7205
v  10.6724 19.1625 19.1399
v  -16.7248 33.6221 -31.2169
v  5.1355 33.4448 -29.5995
v  -47.3503 19.2086 -8.2567
v  -39.6843 33.6221 -8.2573
v  -37.8530 33.6221 -29.3855
v  -45.4086 20.3421 -36.9405
v  -16.7248 33.6221 14.7022
v  -37.8530 33.6221 12.8709
v  6.6005 33.4448 -8.2573
v  4.4034 33.6221 12.8709
v  -39.3378 119.7269 -40.1973
v  -19.3895 118.9338 -39.5639
v  -19.3147 95.4756 -39.0336
v  -39.6744 94.6146 -39.2357
v  -38.9626 122.4035 13.9805
v  -41.9869 122.3803 -8.2573
v  -41.3071 92.3056 -8.2573
v  -38.7276 92.3168 14.2752
v  5.5130 122.4035 13.9805
v  -16.7248 122.4035 15.9801
v  -16.7248 92.3168 15.8301
v  5.8078 92.3168 13.7455
v  4.8893 92.3288 -29.8714
v  6.4427 122.3915 -30.8951
v  8.0424 122.3915 -8.2573
v  7.3626 92.3168 -8.2573
v  7.6041 181.2126 -32.5862
v  -16.7248 181.3229 -35.0352
v  -13.7133 196.4248 -44.4568
v  15.8309 196.6219 -40.8130
v  -41.3073 181.3229 -33.3457
v  -43.1654 181.2126 -8.2573
v  -52.2919 196.6219 -8.2573
v  -52.2919 196.4248 -41.4454
v  -41.0537 181.2126 16.0716
v  -18.8366 181.0227 18.8179
v  -16.7248 196.4222 28.0045
v  -49.2805 196.6219 24.2984
v  16.8939 181.9479 15.7236
v  16.8939 181.9479 -5.4417
v  25.8752 194.4300 -5.2459
v  25.8752 194.4300 24.2984
v  -49.8566 211.7299 -8.2573
v  -49.8566 211.5329 -42.0216
v  -16.7248 211.7299 24.8745
v  -48.8765 211.2700 23.8943
v  26.2169 209.1438 -4.2894
v  26.2169 209.1438 23.8943
v  -39.5863 152.4781 -31.1189
v  -16.7248 152.4781 -33.1745
v  -40.4320 124.3532 -31.4697
v  -16.7247 122.3915 -33.0245
v  4.2656 62.2542 -29.2477
v  -16.7248 62.2542 -31.1351
v  -16.7247 92.3168 -32.3447
v  -39.5863 152.4781 14.6043
v  -41.6420 152.4781 -8.2573
v  -39.6026 62.2542 -8.2573
v  -37.7152 62.2542 -29.2477
v  -39.7073 90.3087 -30.7450
v  5.5263 153.7379 23.5806
v  7.6041 179.1009 25.2407
v  -14.6130 179.1009 25.2407
v  -13.9839 153.7379 23.5806
v  6.5479 152.3262 15.5230
v  -16.7248 152.3262 17.1676
v  -16.7248 62.2422 15.1503
v  -38.0926 62.2422 13.6403
v  -34.1687 69.3766 21.9291
v  -22.3233 69.3766 21.9291
v  -22.3727 84.8834 22.2796
v  -34.4698 84.8834 22.2796
v  7.0777 152.4661 -31.5300
v  10.0530 181.3229 -8.2573
v  8.7222 152.4661 -8.2573
v  14.8154 129.2698 -26.9359
v  15.1775 145.2888 -27.2469
v  15.1775 145.2888 -14.0261
v  14.8154 129.2698 -13.9750
v  6.6828 62.2422 -8.2573
v  5.1728 62.2422 13.1105
v  13.4509 68.9031 9.5430
v  13.4509 68.9031 -3.0259
v  13.8228 85.3569 -2.9734
v  13.8228 85.3569 9.8625
v  -44.4872 3.4496 -45.1316
v  -45.4880 17.5249 -46.2421
v  -20.1072 17.1019 -45.9861
v  -19.9609 3.4517 -44.9487
v  -40.7057 181.9479 -41.8761
v  -49.2805 194.4300 -50.8574
v  -19.7362 194.4300 -50.8574
v  -19.5405 181.9479 -41.8761
v  14.5626 192.8132 33.8913
v  -12.7095 192.8132 33.8913
v  -48.8764 209.1438 -51.1991
v  -20.6928 209.1438 -51.1991
v  17.1261 196.2645 28.0045
v  17.0394 211.5329 24.8745
v  -44.8186 3.4506 -8.2567
v  19.8273 3.4596 -34.5868
v  20.4116 20.7089 -35.6545
v  20.4116 20.7089 -10.7941
v  19.8273 3.4596 -11.4934
v  13.4004 32.2948 -28.9542
v  13.4003 32.2948 -10.6991
v  -54.7058 118.7829 -10.9234
v  -55.1514 119.5853 -31.1013
v  -54.5838 94.4730 -30.5897
v  -54.1756 95.3247 -10.8486
v  19.4747 196.4248 -11.2687
v  10.0530 181.1710 16.8329
v  -48.2648 95.1632 -38.1288
v  -48.7950 118.6214 -38.6590
v  -54.4536 16.5694 -45.9777
v  -53.4162 3.4496 -44.9404
# 136 vertices

vn 0.0286 0.9992 -0.0286
vn 0.0300 -0.1675 -0.9854
vn -0.9970 -0.0769 0.0081
vn -0.0610 -0.1250 0.9903
vn 0.9879 -0.1225 0.0950
vn 0.0408 0.5010 -0.8645
vn -0.8687 0.4924 -0.0546
vn -0.0810 0.4295 0.8995
vn 0.8865 0.4510 0.1034
vn 0.0208 -0.0308 -0.9993
vn -0.9922 -0.0145 0.1242
vn 0.0908 -0.0059 0.9958
vn 0.9951 -0.0385 -0.0916
vn 0.0965 -0.5248 -0.8458
vn -0.8315 -0.5549 -0.0257
vn -0.1045 -0.5050 0.8568
vn 0.8117 -0.5841 -0.0000
vn 0.0925 0.0889 -0.9917
vn -0.9873 0.1591 -0.0009
vn -0.0722 0.1178 0.9904
vn 0.9997 -0.0232 -0.0000
vn -0.0785 -0.0728 -0.9943
vn -0.0771 0.0046 -0.9970
vn 0.0816 0.0088 -0.9966
vn 0.1018 -0.0314 -0.9943
vn -0.9947 -0.0540 0.0878
vn -0.9937 -0.0058 0.1119
vn -0.9961 0.0040 -0.0879
vn -0.9949 -0.0653 -0.0768
vn 0.0000 -0.0653 0.9979
vn 0.0797 -0.0468 0.9957
vn -0.0784 -0.0215 0.9967
vn 0.0000 -0.0226 0.9997
vn 0.9958 -0.0337 -0.0856
vn 0.9997 -0.0226 -0.0000
vn 0.9961 -0.0151 0.0870
vn -0.0257 0.9994 -0.0214
vn 0.0081 -0.0769 -0.9970
vn 0.0610 -0.1250 0.9903
vn -0.0546 0.4923 -0.8687
vn 0.0810 0.4295 0.8995
vn 0.1022 -0.0308 -0.9943
vn -0.0801 0.0021 0.9968
vn 0.0000 -0.5841 -0.8117
vn 0.0000 -0.5336 0.8458
vn 0.0000 -0.0232 -0.9997
vn 0.0011 0.2006 0.9797
vn 0.0845 -0.0512 -0.9951
vn 0.0801 -0.0138 -0.9967
vn -0.0880 0.0040 -0.9961
vn -0.0767 -0.0490 -0.9958
vn -0.1172 -0.0611 0.9912
vn -0.1007 -0.0311 0.9944
vn 0.0896 -0.0132 0.9959
vn 0.0924 -0.0227 0.9955
vn 0.0214 0.9994 0.0257
vn -0.9890 -0.1162 0.0918
vn 0.9994 -0.0339 -0.0000
vn -0.8886 0.4491 0.0931
vn 0.8555 0.5177 0.0000
vn -0.9995 -0.0223 0.0214
vn 0.9957 -0.0067 0.0919
vn -0.8598 -0.5048 0.0774
vn 0.8458 -0.5248 -0.0965
vn -0.9935 0.0956 0.0620
vn 0.9917 0.0889 -0.0925
vn -0.9949 -0.0592 -0.0813
vn -0.9968 0.0208 -0.0772
vn -0.9970 -0.0038 0.0774
vn -0.9950 -0.0397 0.0916
vn 0.9955 -0.0844 0.0438
vn 0.9943 -0.0310 0.1016
vn 0.9957 0.0142 -0.0913
vn 0.9932 -0.0227 -0.1140
vn -0.0286 0.9992 0.0286
vn -0.1440 -0.0310 -0.9891
vn -0.2550 -0.9652 0.0579
vn -0.2012 -0.0032 0.9795
vn -0.2953 0.9539 0.0535
vn 0.0456 0.8809 -0.4711
vn 0.9294 -0.0070 -0.3690
vn 0.0447 -0.8935 -0.4469
vn -0.1145 -0.8858 -0.4497
vn -0.7658 -0.0311 -0.6424
vn -0.2955 0.8844 -0.3613
vn -0.9966 -0.0802 -0.0202
vn 0.0185 0.9565 -0.2910
vn 0.9227 -0.0419 -0.3833
vn -0.2909 0.9566 0.0185
vn -0.2002 0.9591 -0.2001
vn -0.0211 -0.0803 -0.9965
vn -0.3826 -0.0418 0.9230
vn 0.8614 -0.4957 0.1106
vn 0.0022 0.8577 0.5141
vn -0.8530 -0.1820 0.4891
vn -0.8778 -0.0735 0.4734
vn 0.0073 -0.9816 0.1907
vn 0.9733 -0.1112 0.2007
vn 0.1023 -0.9947 -0.0033
vn 0.4799 -0.3999 -0.7809
vn 0.5755 0.1373 -0.8062
vn 0.2727 0.9621 0.0070
vn 0.2756 0.1102 0.9549
vn 0.1827 -0.6388 0.7474
vn 0.1897 -0.1199 -0.9745
vn 0.1416 0.5584 -0.8174
vn 0.1503 0.9886 -0.0056
vn 0.4577 0.3321 0.8247
vn 0.4893 -0.1299 0.8624
vn 0.4153 -0.0276 0.9093
vn 0.6608 -0.7500 0.0294
vn 0.6220 -0.0132 -0.7829
vn 0.6913 0.7219 0.0308
vn 0.4469 -0.0280 -0.8941
vn 0.7002 0.7132 -0.0316
vn 0.6554 -0.0140 0.7552
vn 0.6701 -0.7416 -0.0301
vn -0.8935 -0.0280 0.4482
vn -0.0312 -0.7275 0.6854
vn 0.7620 -0.0138 0.6475
vn -0.0326 0.6983 0.7151
vn -0.7776 -0.6191 -0.1093
vn -0.7777 -0.6191 -0.1093
vn -0.9698 0.0853 -0.2284
vn -0.0070 0.9621 -0.2727
vn 0.8062 0.1373 -0.5755
vn 0.7809 -0.3999 -0.4799
vn -0.0030 -0.9967 -0.0806
vn -0.1783 0.8600 -0.4782
vn -0.2599 -0.9173 -0.3018
vn 0.1931 -0.6462 0.7384
# 131 vertex normals

vt 0.5272 0.6112 0.0000
vt 0.4712 0.5677 0.0000
vt 0.5159 0.5091 0.0000
vt 0.5752 0.5551 0.0000
vt 0.1727 0.9456 0.0000
vt 0.1270 0.9083 0.0000
vt 0.1478 0.8774 0.0000
vt 0.1945 0.9194 0.0000
vt 0.1390 0.0814 0.0000
vt 0.1914 0.0688 0.0000
vt 0.1965 0.0966 0.0000
vt 0.1466 0.1111 0.0000
vt 0.8005 0.0459 0.0000
vt 0.8442 0.0838 0.0000
vt 0.8212 0.1098 0.0000
vt 0.7761 0.0705 0.0000
vt 0.9646 0.8320 0.0000
vt 0.9370 0.8820 0.0000
vt 0.9071 0.8598 0.0000
vt 0.9359 0.8135 0.0000
vt 0.1759 0.8515 0.0000
vt 0.2096 0.8856 0.0000
vt 0.2123 0.1042 0.0000
vt 0.2245 0.1403 0.0000
vt 0.1811 0.1567 0.0000
vt 0.1536 0.1311 0.0000
vt 0.7978 0.1362 0.0000
vt 0.7628 0.1051 0.0000
vt 0.8718 0.8424 0.0000
vt 0.9008 0.8053 0.0000
vt 0.2794 0.6836 0.0000
vt 0.3053 0.7149 0.0000
vt 0.2704 0.7461 0.0000
vt 0.2407 0.7171 0.0000
vt 0.3499 0.2917 0.0000
vt 0.3121 0.3234 0.0000
vt 0.2720 0.2619 0.0000
vt 0.3165 0.2395 0.0000
vt 0.7146 0.3147 0.0000
vt 0.6751 0.2858 0.0000
vt 0.7150 0.2344 0.0000
vt 0.7541 0.2647 0.0000
vt 0.7401 0.7910 0.0000
vt 0.6876 0.7475 0.0000
vt 0.7237 0.7096 0.0000
vt 0.7719 0.7554 0.0000
vt 0.4583 0.6656 0.0000
vt 0.4190 0.6287 0.0000
vt 0.4533 0.6021 0.0000
vt 0.5022 0.6432 0.0000
vt 0.3665 0.4553 0.0000
vt 0.4042 0.4150 0.0000
vt 0.4333 0.4419 0.0000
vt 0.3859 0.4961 0.0000
vt 0.5532 0.3562 0.0000
vt 0.5921 0.3838 0.0000
vt 0.5771 0.4219 0.0000
vt 0.5180 0.3816 0.0000
vt 0.6648 0.5679 0.0000
vt 0.6323 0.5967 0.0000
vt 0.6132 0.5733 0.0000
vt 0.6595 0.5296 0.0000
vt 0.4594 0.4639 0.0000
vt 0.4119 0.5183 0.0000
vt 0.5582 0.4510 0.0000
vt 0.5023 0.4094 0.0000
vt 0.5955 0.5520 0.0000
vt 0.6348 0.5072 0.0000
vt 0.3389 0.6366 0.0000
vt 0.3752 0.5920 0.0000
vt 0.3730 0.6731 0.0000
vt 0.2931 0.6698 0.0000
vt 0.3214 0.7157 0.0000
vt 0.2541 0.8412 0.0000
vt 0.2221 0.8083 0.0000
vt 0.2696 0.7615 0.0000
vt 0.3028 0.7962 0.0000
vt 0.3941 0.3362 0.0000
vt 0.4406 0.3758 0.0000
vt 0.3586 0.3715 0.0000
vt 0.2464 0.1997 0.0000
vt 0.2032 0.2152 0.0000
vt 0.2185 0.2742 0.0000
vt 0.6682 0.3736 0.0000
vt 0.6456 0.4208 0.0000
vt 0.6063 0.3930 0.0000
vt 0.6379 0.3517 0.0000
vt 0.6815 0.3681 0.0000
vt 0.6360 0.3382 0.0000
vt 0.7574 0.1830 0.0000
vt 0.7200 0.1505 0.0000
vt 0.7178 0.1741 0.0000
vt 0.7353 0.1880 0.0000
vt 0.7154 0.2118 0.0000
vt 0.6979 0.1972 0.0000
vt 0.6370 0.6974 0.0000
vt 0.5933 0.6502 0.0000
vt 0.6328 0.6131 0.0000
vt 0.6763 0.6608 0.0000
vt 0.6833 0.7239 0.0000
vt 0.6607 0.7016 0.0000
vt 0.6785 0.6838 0.0000
vt 0.7011 0.7069 0.0000
vt 0.8226 0.8009 0.0000
vt 0.8559 0.7643 0.0000
vt 0.8337 0.7616 0.0000
vt 0.8183 0.7795 0.0000
vt 0.7938 0.7573 0.0000
vt 0.8102 0.7395 0.0000
vt 0.0718 0.8621 0.0000
vt 0.0918 0.8383 0.0000
vt 0.1297 0.8759 0.0000
vt 0.1119 0.8978 0.0000
vt 0.8873 0.1223 0.0000
vt 0.8659 0.1495 0.0000
vt 0.1088 0.8257 0.0000
vt 0.1447 0.8171 0.0000
vt 0.8333 0.1667 0.0000
vt 0.3550 0.7544 0.0000
vt 0.6359 0.2564 0.0000
vt 0.6748 0.2033 0.0000
vt 0.3889 0.5844 0.0000
vt 0.3954 0.5521 0.0000
vt 0.4393 0.5920 0.0000
vt 0.4199 0.6144 0.0000
vt 0.6343 0.4547 0.0000
vt 0.5919 0.4220 0.0000
vt 0.4121 0.5335 0.0000
vt 0.4543 0.5693 0.0000
vt 0.6376 0.4657 0.0000
vt 0.6181 0.4937 0.0000
vt 0.4083 0.7113 0.0000
vt 0.1897 0.7759 0.0000
vt 0.2272 0.7306 0.0000
vt 0.5953 0.3077 0.0000
vt 0.7941 0.2143 0.0000
vt 0.2648 0.0582 0.0000
vt 0.2721 0.0907 0.0000
vt 0.2096 0.0671 0.0000
vt 0.8912 0.9383 0.0000
vt 0.8661 0.9133 0.0000
vt 0.8979 0.8747 0.0000
vt 0.9259 0.8982 0.0000
vt 0.2685 0.1257 0.0000
vt 0.8536 0.8861 0.0000
vt 0.8765 0.8571 0.0000
vt 0.2887 0.3207 0.0000
vt 0.2589 0.3441 0.0000
vt 0.2324 0.3020 0.0000
vt 0.2651 0.2845 0.0000
vt 0.7576 0.6742 0.0000
vt 0.8058 0.7173 0.0000
vt 0.4798 0.3883 0.0000
vt 0.5531 0.6333 0.0000
vt 0.5982 0.5866 0.0000
vt 0.3242 0.4079 0.0000
vt 0.2780 0.3684 0.0000
vt 0.2907 0.1820 0.0000
vt 0.6766 0.5762 0.0000
vt 0.7151 0.6258 0.0000
vt 0.8376 0.8794 0.0000
vt 0.7914 0.8350 0.0000
vt 0.2276 0.7037 0.0000
vt 0.2657 0.6683 0.0000
vt 0.2459 0.3575 0.0000
vt 0.2147 0.3076 0.0000
vt 0.1279 0.1162 0.0000
vt 0.1203 0.0879 0.0000
vt 0.1326 0.1356 0.0000
vt 0.0578 0.8486 0.0000
vt 0.0762 0.8263 0.0000
vt 0.6639 0.4296 0.0000
vt 0.6560 0.4766 0.0000
vt 0.6368 0.5018 0.0000
vt 0.8500 0.9222 0.0000
vt 0.8749 0.9517 0.0000
vt 0.3794 0.5430 0.0000
# 177 texture coords

o Columna_Piedra_Low_Only
g Columna_Piedra_Low_Only
usemtl wire_228214153
f 1/1/1 2/2/1 3/3/1 4/4/1 
f 5/5/2 6/6/2 7/7/2 8/8/2 
f 9/9/3 10/10/3 11/11/3 12/12/3 
f 13/13/4 14/14/4 15/15/4 16/16/4 
f 17/17/5 18/18/5 19/19/5 20/20/5 
f 7/7/6 21/21/6 22/22/6 8/8/6 
f 23/23/7 24/24/7 25/25/7 26/26/7 
f 15/15/8 27/27/8 28/28/8 16/16/8 
f 19/19/9 29/29/9 30/30/9 20/20/9 
f 31/31/10 32/32/10 33/33/10 34/34/10 
f 35/35/11 36/36/11 37/37/11 38/38/11 
f 39/39/12 40/40/12 41/41/12 42/42/12 
f 43/43/13 44/44/13 45/45/13 46/46/13 
f 47/47/14 48/48/14 49/49/14 50/50/14 
f 51/51/15 52/52/15 53/53/15 54/54/15 
f 55/55/16 56/56/16 57/57/16 58/58/16 
f 59/59/17 60/60/17 61/61/17 62/62/17 
f 49/49/18 2/2/18 1/1/18 50/50/18 
f 54/54/19 53/53/19 63/63/19 64/64/19 
f 57/57/20 65/65/20 66/66/20 58/58/20 
f 62/62/21 61/61/21 67/67/21 68/68/21 
f 69/69/22 51/70/22 48/48/22 70/71/22 
f 71/72/23 69/69/23 70/71/23 72/73/23 
f 73/74/24 22/22/24 21/21/24 74/75/24 
f 73/74/25 74/75/25 75/76/25 43/77/25 
f 76/78/26 55/79/26 52/52/26 77/80/26 
f 35/35/27 76/78/27 77/80/27 36/36/27 
f 25/25/28 24/24/28 78/81/28 79/82/28 
f 80/83/29 79/82/29 78/81/29 37/37/29 
f 81/84/30 82/85/30 83/86/30 84/87/30 
f 39/39/31 85/88/31 86/89/31 40/40/31 
f 28/28/32 27/27/32 87/90/32 88/91/32 
f 89/92/33 90/93/33 91/94/33 92/95/33 
f 93/96/34 47/97/34 94/98/34 95/99/34 
f 96/100/35 97/101/35 98/102/35 99/103/35 
f 30/30/36 29/29/36 100/104/36 101/105/36 
f 102/106/35 103/107/35 104/108/35 105/109/35 
f 64/64/37 63/63/37 3/3/37 2/2/37 
f 106/110/38 107/111/38 108/112/38 109/113/38 
f 17/114/39 20/115/39 15/15/39 14/14/39 
f 7/7/40 26/116/40 25/117/40 21/21/40 
f 15/15/41 20/115/41 30/118/41 27/27/41 
f 72/73/42 44/119/42 43/77/42 75/76/42 
f 35/120/43 38/121/43 41/41/43 40/40/43 
f 110/122/44 111/123/44 112/124/44 113/125/44 
f 82/85/45 114/126/45 115/127/45 83/86/45 
f 111/123/46 116/128/46 117/129/46 112/124/46 
f 57/57/47 118/130/47 119/131/47 65/65/47 
f 47/47/48 93/132/48 70/71/48 48/48/48 
f 70/71/49 93/132/49 44/119/49 72/73/49 
f 25/117/50 79/133/50 74/75/50 21/21/50 
f 74/75/51 79/133/51 80/134/51 75/76/51 
f 56/56/52 55/55/52 76/135/52 86/89/52 
f 86/89/53 76/135/53 35/120/53 40/40/53 
f 30/118/54 101/136/54 87/90/54 27/27/54 
f 101/136/55 42/42/55 41/41/55 87/90/55 
f 3/3/56 65/65/56 119/131/56 4/4/56 
f 13/137/57 16/138/57 23/23/57 120/139/57 
f 121/140/58 122/141/58 123/142/58 124/143/58 
f 23/23/59 16/138/59 28/144/59 24/24/59 
f 123/142/60 122/141/60 125/145/60 126/146/60 
f 127/147/61 128/148/61 129/149/61 130/150/61 
f 39/151/62 42/152/62 46/46/62 45/45/62 
f 55/79/63 58/153/63 53/53/63 52/52/63 
f 47/97/64 50/154/64 131/155/64 94/98/64 
f 53/53/65 58/153/65 66/66/65 63/63/65 
f 131/155/66 50/154/66 1/1/66 4/4/66 
f 52/52/67 51/51/67 69/156/67 77/80/67 
f 77/80/68 69/156/68 71/157/68 36/36/68 
f 28/144/69 88/158/69 78/81/69 24/24/69 
f 88/158/70 38/38/70 37/37/70 78/81/70 
f 94/98/71 132/159/71 85/160/71 95/99/71 
f 95/99/72 85/160/72 39/151/72 45/45/72 
f 22/161/73 73/162/73 100/104/73 29/29/73 
f 73/162/74 43/43/74 46/46/74 100/104/74 
f 66/66/75 65/65/75 3/3/75 63/63/75 
f 34/34/76 133/163/76 134/164/76 31/31/76 
f 80/83/77 37/37/77 130/150/77 129/149/77 
f 36/36/78 127/147/78 130/150/78 37/37/78 
f 71/157/79 128/148/79 127/147/79 36/36/79 
f 71/72/80 72/73/80 32/32/80 31/31/80 
f 75/76/81 33/33/81 32/32/81 72/73/81 
f 80/134/82 34/34/82 33/33/82 75/76/82 
f 80/134/83 133/163/83 34/34/83 
f 129/149/84 128/148/84 134/165/84 133/166/84 
f 128/148/85 71/157/85 134/165/85 
f 12/12/86 135/167/86 136/168/86 9/9/86 
f 26/116/87 7/7/87 108/112/87 107/111/87 
f 6/6/88 109/113/88 108/112/88 7/7/88 
f 26/26/89 12/12/89 11/11/89 23/23/89 
f 107/169/90 135/167/90 12/12/90 26/26/90 
f 107/111/91 106/110/91 136/170/91 135/171/91 
f 120/139/92 23/23/92 11/11/92 10/10/92 
f 118/130/93 114/126/93 82/85/93 132/172/93 
f 118/130/94 57/57/94 115/127/94 114/126/94 
f 57/57/95 56/56/95 83/86/95 115/127/95 
f 86/89/96 84/87/96 83/86/96 56/56/96 
f 85/88/97 81/84/97 84/87/97 86/89/97 
f 132/172/98 82/85/98 81/84/98 85/88/98 
f 132/159/99 94/98/99 60/60/99 59/59/99 
f 131/155/100 61/61/100 60/60/100 94/98/100 
f 131/155/101 4/4/101 67/67/101 61/61/101 
f 119/131/102 68/68/102 67/67/102 4/4/102 
f 118/130/103 62/173/103 68/174/103 119/131/103 
f 118/130/104 132/172/104 62/173/104 
f 8/175/105 122/141/105 121/140/105 5/176/105 
f 8/175/106 22/161/106 125/145/106 122/141/106 
f 22/161/107 29/29/107 126/146/107 125/145/107 
f 19/19/108 123/142/108 126/146/108 29/29/108 
f 19/19/109 18/18/109 124/143/109 123/142/109 
f 101/105/110 102/106/110 105/109/110 42/152/110 
f 101/105/111 100/104/111 103/107/111 102/106/111 
f 46/46/112 104/108/112 103/107/112 100/104/112 
f 42/152/113 105/109/113 104/108/113 46/46/113 
f 93/96/114 97/101/114 96/100/114 44/44/114 
f 93/96/115 95/99/115 98/102/115 97/101/115 
f 45/45/116 99/103/116 98/102/116 95/99/116 
f 44/44/117 96/100/117 99/103/117 45/45/117 
f 88/91/118 89/92/118 92/95/118 38/121/118 
f 88/91/119 87/90/119 90/93/119 89/92/119 
f 41/41/120 91/94/120 90/93/120 87/90/120 
f 38/121/121 92/95/121 91/94/121 41/41/121 
f 54/177/122 111/123/123 110/122/123 51/70/123 
f 54/177/124 64/64/124 116/128/124 111/123/124 
f 64/64/125 2/2/125 117/129/125 116/128/125 
f 49/49/126 112/124/126 117/129/126 2/2/126 
f 49/49/127 48/48/127 113/125/127 112/124/127 
f 51/70/128 110/122/128 113/125/128 48/48/128 
f 71/72/129 31/31/129 134/164/129 
f 80/83/130 129/149/130 133/166/130 
f 132/159/131 59/59/131 62/62/131 
# 125 polygons - 6 triangles

