# 3ds Max Wavefront OBJ Exporter v0.97b - (c)2007 guruware
# File Created: 16.02.2019 12:49:57

mtllib Cristales.mtl

#
# object Box001
#

v  -0.8472 -0.0324 0.1310
v  -0.4460 0.0226 0.1188
v  -0.4125 2.1576 0.3377
v  -1.1843 2.1341 0.4237
v  -0.4307 0.0240 0.1050
v  -0.2967 0.0114 -0.2782
v  -0.2395 2.2447 -0.5994
v  -0.3966 2.1591 0.3242
v  -0.3060 0.0091 -0.2956
v  -0.6710 -0.0553 -0.4597
v  -0.9893 2.0861 -0.8938
v  -0.2482 2.2434 -0.6170
v  -0.6910 -0.0575 -0.4544
v  -0.9748 -0.0741 -0.1661
v  -1.4423 2.0400 -0.3196
v  -1.0094 2.0825 -0.8887
v  -0.9787 -0.0729 -0.1441
v  -0.8643 -0.0356 0.1199
v  -1.2018 2.1320 0.4126
v  -1.4461 2.0407 -0.2979
v  -1.1835 2.1576 0.4174
v  -0.4193 2.1808 0.3328
v  -0.9642 3.1078 -0.2637
v  -0.4034 2.1831 0.3166
v  -0.2466 2.2677 -0.5971
v  -0.9508 3.1142 -0.2825
v  -0.2569 2.2663 -0.6150
v  -0.9898 2.1106 -0.8893
v  -0.9581 3.1093 -0.3017
v  -1.0108 2.1069 -0.8833
v  -1.4398 2.0647 -0.3211
v  -0.9792 3.1022 -0.2978
v  -1.4437 2.0654 -0.2980
v  -1.2012 2.1559 0.4055
v  -0.9822 3.1048 -0.2746
v  0.2599 -0.0256 0.5939
v  0.7490 -0.0259 0.2824
v  1.4363 2.9596 0.5161
v  0.5597 3.0692 1.1916
v  0.7579 -0.0254 0.2542
v  0.6376 -0.0260 -0.3146
v  0.9819 3.1549 -0.7612
v  1.4461 2.9601 0.4878
v  0.6130 -0.0254 -0.3290
v  0.0370 -0.0256 -0.2604
v  -0.1765 3.1126 -0.5677
v  0.9582 3.1569 -0.7763
v  0.0161 -0.0253 -0.2391
v  -0.1208 -0.0255 0.3240
v  -0.3163 3.0718 0.4710
v  -0.1978 3.1109 -0.5466
v  -0.1092 -0.0255 0.3538
v  0.2303 -0.0254 0.5929
v  0.5299 3.0710 1.1908
v  -0.3049 3.0710 0.5005
v  0.5614 3.1029 1.1831
v  1.4298 2.9942 0.5150
v  0.5467 4.4797 0.1816
v  1.4377 2.9962 0.4834
v  0.9802 3.1886 -0.7532
v  0.5507 4.4883 0.1486
v  0.9544 3.1907 -0.7676
v  -0.1681 3.1468 -0.5619
v  0.5266 4.4850 0.1305
v  -0.1900 3.1451 -0.5391
v  -0.3087 3.1063 0.4672
v  0.5023 4.4786 0.1509
v  -0.2963 3.1055 0.4984
v  0.5310 3.1055 1.1815
v  0.5162 4.4803 0.1815
v  0.0787 -0.0445 -0.6662
v  -0.1295 -0.0506 -0.7506
v  -0.1722 1.0544 -1.1916
v  0.2392 1.1019 -1.0725
v  -0.1404 -0.0495 -0.7472
v  -0.2928 -0.0198 -0.5840
v  -0.4705 1.2038 -0.7789
v  -0.1833 1.0555 -1.1884
v  -0.2918 -0.0180 -0.5731
v  -0.1408 0.0021 -0.4079
v  -0.1498 1.2257 -0.4564
v  -0.4700 1.2062 -0.7682
v  -0.1293 0.0021 -0.4060
v  0.0791 -0.0173 -0.4874
v  0.2087 1.1699 -0.6394
v  -0.1384 1.2250 -0.4542
v  0.0858 -0.0191 -0.4976
v  0.0850 -0.0432 -0.6567
v  0.2457 1.1038 -1.0631
v  0.2155 1.1679 -0.6494
v  0.2366 1.1151 -1.0732
v  -0.1706 1.0680 -1.1913
v  -0.0585 1.6870 -0.9279
v  -0.1823 1.0698 -1.1869
v  -0.4672 1.2164 -0.7821
v  -0.0697 1.6915 -0.9224
v  -0.4659 1.2189 -0.7709
v  -0.1494 1.2383 -0.4622
v  -0.0701 1.6921 -0.9107
v  -0.1373 1.2375 -0.4603
v  0.2063 1.1830 -0.6429
v  -0.0582 1.6897 -0.9072
v  0.2133 1.1808 -0.6536
v  0.2430 1.1174 -1.0634
v  -0.0517 1.6884 -0.9184
# 105 vertices

vn -0.2424 -0.1572 0.9574
vn 0.3631 -0.1008 0.9263
vn 0.3985 0.0921 0.9125
vn -0.2397 0.0547 0.9693
vn 0.8498 -0.0382 0.5257
vn 0.9977 -0.0342 -0.0588
vn 0.9796 0.1282 -0.1549
vn 0.8484 0.1452 0.5090
vn 0.6740 -0.1133 -0.7300
vn 0.1106 -0.1818 -0.9771
vn 0.0429 -0.0054 -0.9991
vn 0.6672 0.0870 -0.7398
vn -0.4919 -0.2264 -0.8407
vn -0.8633 -0.2238 -0.4523
vn -0.9140 -0.0865 -0.3964
vn -0.5370 -0.0565 -0.8417
vn -0.9682 -0.2163 0.1261
vn -0.7471 -0.2018 0.6333
vn -0.7709 0.0024 0.6370
vn -0.9953 -0.0598 0.0761
vn -0.2423 0.4263 0.8715
vn 0.3439 0.4626 0.8171
vn -0.0600 0.8505 0.5225
vn 0.7489 0.5039 0.4304
vn 0.8586 0.4909 -0.1476
vn 0.2676 0.9621 0.0526
vn 0.5337 0.4516 -0.7150
vn -0.0201 0.3409 -0.9399
vn 0.0316 0.8434 -0.5364
vn -0.5662 0.2825 -0.7744
vn -0.8956 0.2209 -0.3861
vn -0.5874 0.6906 -0.4218
vn -0.9675 0.2453 0.0611
vn -0.7585 0.3508 0.5492
vn -0.6032 0.7847 0.1427
vn 0.2580 -0.1977 0.9457
vn 0.7630 -0.2233 0.6066
vn 0.8167 -0.0367 0.5758
vn 0.3001 0.0101 0.9539
vn 0.9803 -0.1969 0.0121
vn 0.8081 -0.1669 -0.5650
vn 0.7697 0.0035 -0.6384
vn 0.9999 -0.0143 -0.0021
vn 0.1798 -0.1470 -0.9727
vn -0.4335 -0.1171 -0.8935
vn -0.4738 0.0681 -0.8780
vn 0.2008 0.0524 -0.9782
vn -0.8805 -0.0888 -0.4657
vn -0.9961 -0.0657 0.0586
vn -0.9886 0.0724 0.1321
vn -0.8920 0.0853 -0.4439
vn -0.7887 -0.0897 0.6081
vn -0.3411 -0.1463 0.9286
vn -0.3267 0.0583 0.9433
vn -0.8122 0.0725 0.5788
vn 0.3073 0.3851 0.8702
vn 0.7810 0.3443 0.5211
vn 0.3512 0.8064 0.4758
vn 0.9328 0.3598 -0.0193
vn 0.7289 0.3777 -0.5710
vn 0.4064 0.9086 -0.0961
vn 0.1588 0.4288 -0.8893
vn -0.4417 0.4140 -0.7959
vn -0.1123 0.8709 -0.4785
vn -0.8283 0.4187 -0.3722
vn -0.9188 0.3726 0.1305
vn -0.6016 0.7965 -0.0606
vn -0.7478 0.3710 0.5506
vn -0.3054 0.4075 0.8606
vn -0.3122 0.8467 0.4308
vn 0.6138 -0.3298 -0.7172
vn 0.0441 -0.3690 -0.9284
vn -0.0059 -0.1867 -0.9824
vn 0.6029 -0.1298 -0.7872
vn -0.5650 -0.2978 -0.7695
vn -0.9339 -0.1846 -0.3062
vn -0.9659 -0.0038 -0.2590
vn -0.5819 -0.1178 -0.8047
vn -0.9009 -0.0532 0.4307
vn -0.4799 0.0311 0.8768
vn -0.4378 0.2165 0.8726
vn -0.9111 0.1423 0.3868
vn 0.1284 0.0568 0.9901
vn 0.6231 0.0319 0.7815
vn 0.6831 0.1592 0.7128
vn 0.1586 0.2275 0.9608
vn 0.9494 -0.0759 0.3046
vn 0.9489 -0.2149 -0.2311
vn 0.9593 -0.0159 -0.2819
vn 0.9445 0.0901 0.3159
vn 0.5429 0.2495 -0.8019
vn -0.0173 0.1997 -0.9797
vn 0.2102 0.7061 -0.6762
vn -0.5447 0.2608 -0.7971
vn -0.8750 0.3625 -0.3208
vn -0.2840 0.8665 -0.4105
vn -0.8020 0.5085 0.3135
vn -0.3783 0.5455 0.7478
vn -0.2959 0.9266 0.2321
vn 0.1909 0.5421 0.8183
vn 0.6511 0.4487 0.6121
vn 0.3256 0.8564 0.4008
vn 0.8940 0.3816 0.2349
vn 0.8911 0.3364 -0.3046
vn 0.5595 0.8200 -0.1205
# 105 vertex normals

vt 0.8255 0.1622 0.0000
vt 0.8715 0.1470 0.0000
vt 0.9873 0.3759 0.0000
vt 0.9030 0.4149 0.0000
vt 0.6396 0.1450 0.0000
vt 0.6849 0.1616 0.0000
vt 0.6218 0.4239 0.0000
vt 0.5217 0.3729 0.0000
vt 0.6872 0.1622 0.0000
vt 0.7353 0.1676 0.0000
vt 0.7202 0.4311 0.0000
vt 0.6240 0.4246 0.0000
vt 0.7378 0.1677 0.0000
vt 0.7860 0.1666 0.0000
vt 0.8080 0.4251 0.0000
vt 0.7227 0.4310 0.0000
vt 0.7887 0.1665 0.0000
vt 0.8231 0.1627 0.0000
vt 0.9006 0.4156 0.0000
vt 0.8107 0.4249 0.0000
vt 0.9643 0.7358 0.0000
vt 0.9841 0.8254 0.0000
vt 0.8389 0.8032 0.0000
vt 0.6890 0.8260 0.0000
vt 0.7250 0.7207 0.0000
vt 0.8348 0.8029 0.0000
vt 0.7263 0.7188 0.0000
vt 0.8051 0.6654 0.0000
vt 0.8349 0.8007 0.0000
vt 0.8076 0.6647 0.0000
vt 0.8915 0.6756 0.0000
vt 0.8367 0.7995 0.0000
vt 0.8941 0.6767 0.0000
vt 0.9632 0.7337 0.0000
vt 0.8385 0.8009 0.0000
vt 0.9670 0.7346 0.0000
vt 0.9656 0.7320 0.0000
vt 0.9868 0.8281 0.0000
vt 0.9836 0.8281 0.0000
vt 0.9870 0.8256 0.0000
vt 0.7242 0.7169 0.0000
vt 0.7225 0.7193 0.0000
vt 0.8072 0.6618 0.0000
vt 0.8044 0.6626 0.0000
vt 0.8950 0.6738 0.0000
vt 0.8924 0.6729 0.0000
vt 0.8737 0.1459 0.0000
vt 0.9895 0.3748 0.0000
vt 0.6859 0.8259 0.0000
vt 0.8957 0.6742 0.0000
vt 0.8375 0.8058 0.0000
vt 0.1680 0.5670 0.0000
vt 0.2314 0.5948 0.0000
vt 0.1351 0.9492 0.0000
vt 0.0082 0.9100 0.0000
vt 0.2348 0.5958 0.0000
vt 0.3031 0.6054 0.0000
vt 0.2940 0.9914 0.0000
vt 0.1386 0.9502 0.0000
vt 0.3066 0.6055 0.0000
vt 0.3755 0.5986 0.0000
vt 0.4338 0.9718 0.0000
vt 0.2973 0.9917 0.0000
vt 0.3790 0.5980 0.0000
vt 0.4462 0.5819 0.0000
vt 0.5549 0.9369 0.0000
vt 0.4373 0.9710 0.0000
vt 0.4499 0.5808 0.0000
vt 0.4969 0.5652 0.0000
vt 0.6816 0.8957 0.0000
vt 0.5585 0.9358 0.0000
vt 0.5741 0.6693 0.0000
vt 0.5914 0.5389 0.0000
vt 0.7758 0.6418 0.0000
vt 0.5932 0.5357 0.0000
vt 0.7266 0.4492 0.0000
vt 0.7768 0.6386 0.0000
vt 0.7298 0.4483 0.0000
vt 0.8656 0.4585 0.0000
vt 0.7787 0.6366 0.0000
vt 0.8688 0.4602 0.0000
vt 0.9529 0.5473 0.0000
vt 0.7815 0.6377 0.0000
vt 0.9544 0.5509 0.0000
vt 0.9821 0.6761 0.0000
vt 0.7816 0.6415 0.0000
vt 0.5700 0.6693 0.0000
vt 0.5747 0.6728 0.0000
vt 0.5703 0.6730 0.0000
vt 0.5895 0.5335 0.0000
vt 0.5876 0.5371 0.0000
vt 0.7290 0.4445 0.0000
vt 0.7251 0.4454 0.0000
vt 0.8711 0.4566 0.0000
vt 0.8674 0.4546 0.0000
vt 0.9583 0.5491 0.0000
vt 0.9565 0.5453 0.0000
vt 0.0050 0.9084 0.0000
vt 0.1650 0.5652 0.0000
vt 0.9863 0.6757 0.0000
vt 0.7763 0.6454 0.0000
vt 0.8367 0.8487 0.0000
vt 0.8635 0.8498 0.0000
vt 0.8788 0.9912 0.0000
vt 0.8274 0.9950 0.0000
vt 0.8649 0.8496 0.0000
vt 0.8909 0.8435 0.0000
vt 0.9420 0.9840 0.0000
vt 0.8802 0.9911 0.0000
vt 0.8921 0.8430 0.0000
vt 0.9160 0.8308 0.0000
vt 0.9898 0.9572 0.0000
vt 0.9433 0.9837 0.0000
vt 0.7900 0.8344 0.0000
vt 0.8153 0.8432 0.0000
vt 0.7761 0.9817 0.0000
vt 0.7307 0.9681 0.0000
vt 0.8167 0.8437 0.0000
vt 0.8353 0.8484 0.0000
vt 0.8260 0.9949 0.0000
vt 0.7775 0.9821 0.0000
vt 0.4618 0.0170 0.0000
vt 0.5116 0.0066 0.0000
vt 0.4981 0.0869 0.0000
vt 0.5129 0.0070 0.0000
vt 0.5615 0.0448 0.0000
vt 0.4991 0.0878 0.0000
vt 0.5620 0.0459 0.0000
vt 0.5760 0.0968 0.0000
vt 0.4995 0.0889 0.0000
vt 0.4220 0.1039 0.0000
vt 0.4286 0.0574 0.0000
vt 0.4972 0.0890 0.0000
vt 0.4290 0.0560 0.0000
vt 0.4607 0.0178 0.0000
vt 0.4973 0.0876 0.0000
vt 0.4611 0.0155 0.0000
vt 0.4597 0.0165 0.0000
vt 0.5133 0.0053 0.0000
vt 0.5118 0.0050 0.0000
vt 0.5635 0.0451 0.0000
vt 0.5627 0.0438 0.0000
vt 0.5777 0.0982 0.0000
vt 0.5760 0.0982 0.0000
vt 0.5777 0.0968 0.0000
vt 0.4276 0.0553 0.0000
vt 0.4270 0.0568 0.0000
vt 0.7888 0.8338 0.0000
vt 0.7294 0.9676 0.0000
vt 0.4203 0.1039 0.0000
vt 0.4997 0.0905 0.0000
# 151 texture coords

o Box001
g Box001
usemtl wire_088144225
s off
f 1/1/1 2/2/2 3/3/3 4/4/4 
f 5/5/5 6/6/6 7/7/7 8/8/8 
f 9/9/9 10/10/10 11/11/11 12/12/12 
f 13/13/13 14/14/14 15/15/15 16/16/16 
f 17/17/17 18/18/18 19/19/19 20/20/20 
f 21/21/21 22/22/22 23/23/23 
f 24/24/24 25/25/25 26/26/26 
f 27/27/27 28/28/28 29/29/29 
f 30/30/30 31/31/31 32/32/32 
f 33/33/33 34/34/34 35/35/35 
f 4/36/4 21/21/21 34/34/34 19/37/19 
f 8/38/8 24/39/24 22/22/22 3/40/3 
f 12/41/12 27/27/27 25/25/25 7/42/7 
f 16/43/16 30/30/30 28/28/28 11/44/11 
f 20/45/20 33/33/33 31/31/31 15/46/15 
f 23/23/23 26/26/26 29/29/29 32/32/32 
f 23/23/23 32/32/32 35/35/35 
f 3/40/3 22/22/22 21/21/21 4/36/4 
f 4/4/4 19/19/19 18/18/18 1/1/1 
f 2/2/2 5/47/5 8/48/8 3/3/3 
f 7/42/7 25/25/25 24/24/24 8/49/8 
f 6/6/6 9/9/9 12/12/12 7/7/7 
f 11/44/11 28/28/28 27/27/27 12/41/12 
f 10/10/10 13/13/13 16/16/16 11/11/11 
f 15/46/15 31/31/31 30/30/30 16/43/16 
f 14/14/14 17/17/17 20/20/20 15/15/15 
f 19/37/19 34/34/34 33/33/33 20/50/20 
f 23/23/23 35/35/35 34/34/34 21/21/21 
f 22/22/22 24/39/24 26/51/26 23/23/23 
f 25/25/25 27/27/27 29/29/29 26/26/26 
f 28/28/28 30/30/30 32/32/32 29/29/29 
f 31/31/31 33/33/33 35/35/35 32/32/32 
f 36/52/36 37/53/37 38/54/38 39/55/39 
f 40/56/40 41/57/41 42/58/42 43/59/43 
f 44/60/44 45/61/45 46/62/46 47/63/47 
f 48/64/48 49/65/49 50/66/50 51/67/51 
f 52/68/52 53/69/53 54/70/54 55/71/55 
f 56/72/56 57/73/57 58/74/58 
f 59/75/59 60/76/60 61/77/61 
f 62/78/62 63/79/63 64/80/64 
f 65/81/65 66/82/66 67/83/67 
f 68/84/68 69/85/69 70/86/70 
f 39/87/39 56/72/56 69/88/69 54/89/54 
f 43/90/43 59/75/59 57/73/57 38/91/38 
f 47/92/47 62/78/62 60/76/60 42/93/42 
f 51/94/51 65/81/65 63/79/63 46/95/46 
f 55/96/55 68/84/68 66/82/66 50/97/50 
f 58/74/58 61/77/61 64/80/64 67/83/67 
f 58/74/58 67/83/67 70/86/70 
f 38/91/38 57/73/57 56/72/56 39/87/39 
f 39/55/39 54/98/54 53/99/53 36/52/36 
f 37/53/37 40/56/40 43/59/43 38/54/38 
f 42/93/42 60/76/60 59/75/59 43/90/43 
f 41/57/41 44/60/44 47/63/47 42/58/42 
f 46/95/46 63/79/63 62/78/62 47/92/47 
f 45/61/45 48/64/48 51/67/51 46/62/46 
f 50/97/50 66/82/66 65/81/65 51/94/51 
f 49/65/49 52/68/52 55/71/55 50/66/50 
f 54/100/54 69/85/69 68/84/68 55/96/55 
f 58/74/58 70/101/70 69/88/69 56/72/56 
f 57/73/57 59/75/59 61/77/61 58/74/58 
f 60/76/60 62/78/62 64/80/64 61/77/61 
f 63/79/63 65/81/65 67/83/67 64/80/64 
f 66/82/66 68/84/68 70/86/70 67/83/67 
f 71/102/71 72/103/72 73/104/73 74/105/74 
f 75/106/75 76/107/76 77/108/77 78/109/78 
f 79/110/79 80/111/80 81/112/81 82/113/82 
f 83/114/83 84/115/84 85/116/85 86/117/86 
f 87/118/87 88/119/88 89/120/89 90/121/90 
f 91/122/91 92/123/92 93/124/93 
f 94/125/94 95/126/95 96/127/96 
f 97/128/97 98/129/98 99/130/99 
f 100/131/100 101/132/101 102/133/102 
f 103/134/103 104/135/104 105/136/105 
f 74/137/74 91/122/91 104/135/104 89/138/89 
f 78/139/78 94/125/94 92/123/92 73/140/73 
f 82/141/82 97/128/97 95/126/95 77/142/77 
f 86/143/86 100/144/100 98/129/98 81/145/81 
f 90/146/90 103/134/103 101/132/101 85/147/85 
f 93/124/93 96/127/96 99/130/99 102/133/102 
f 93/124/93 102/133/102 105/136/105 
f 73/140/73 92/123/92 91/122/91 74/137/74 
f 74/105/74 89/120/89 88/119/88 71/102/71 
f 72/103/72 75/106/75 78/109/78 73/104/73 
f 77/142/77 95/126/95 94/125/94 78/139/78 
f 76/107/76 79/110/79 82/113/82 77/108/77 
f 81/145/81 98/129/98 97/128/97 82/141/82 
f 80/148/80 83/114/83 86/117/86 81/149/81 
f 85/147/85 101/132/101 100/131/100 86/150/86 
f 84/115/84 87/118/87 90/121/90 85/116/85 
f 89/138/89 104/135/104 103/134/103 90/146/90 
f 93/124/93 105/136/105 104/135/104 91/122/91 
f 92/123/92 94/125/94 96/127/96 93/124/93 
f 95/126/95 97/128/97 99/130/99 96/127/96 
f 98/129/98 100/144/100 102/151/102 99/130/99 
f 101/132/101 103/134/103 105/136/105 102/133/102 
# 78 polygons - 18 triangles

