# 3ds Max Wavefront OBJ Exporter v0.97b - (c)2007 guruware
# File Created: 12.02.2019 21:21:28

mtllib Low Procedural.mtl

#
# object Box001
#

v  39.2189 0.4615 -39.3701
v  39.2189 1.8926 -39.3701
v  39.2189 1.8926 39.3701
v  39.2189 0.4615 39.3701
v  -39.5213 0.4615 -39.3701
v  -39.5213 0.4615 39.3701
v  -39.5213 1.8926 39.3701
v  -39.5213 1.8926 -39.3701
# 8 vertices

vn 0.5774 -0.5774 -0.5774
vn 0.5774 0.5774 -0.5774
vn 0.5774 0.5774 0.5774
vn 0.5774 -0.5774 0.5774
vn -0.5774 -0.5773 -0.5774
vn -0.5773 -0.5774 0.5773
vn -0.5774 0.5773 0.5774
vn -0.5773 0.5774 -0.5773
# 8 vertex normals

vt 0.7490 0.4933 0.0000
vt 0.7406 0.4898 0.0000
vt 0.7406 0.0250 0.0000
vt 0.7490 0.0284 0.0000
vt 0.2673 0.4933 0.0000
vt 0.2673 0.0284 0.0000
vt 0.2757 0.0250 0.0000
vt 0.2757 0.4898 0.0000
vt 0.2742 0.9800 0.0000
vt 0.2742 0.5151 0.0000
vt 0.7391 0.5151 0.0000
vt 0.7391 0.9800 0.0000
vt 0.7406 0.0200 0.0000
vt 0.2757 0.0200 0.0000
vt 0.7406 0.5018 0.0000
vt 0.2757 0.5018 0.0000
# 16 texture coords

o Box001
g Box001
usemtl wire_006135006
s 2
f 1/1/1 2/2/2 3/3/3 4/4/4 
s 4
f 5/5/5 6/6/6 7/7/7 8/8/8 
s 8
f 1/9/1 4/10/4 6/11/6 5/12/5 
s 16
f 4/13/4 3/3/3 7/7/7 6/14/6 
s 32
f 3/3/3 2/2/2 8/8/8 7/7/7 
s 64
f 2/2/2 1/15/1 5/16/5 8/8/8 
# 6 polygons

