# This file uses centimeters as units for non-parametric coordinates.

mtllib pinxo_verja.mtl
g default
v 0.163550 -0.369400 -0.283278
v -0.163550 -0.369400 -0.283278
v -0.327101 -0.369400 -0.000000
v -0.163550 -0.369400 0.283278
v 0.163550 -0.369400 0.283278
v 0.327101 -0.369400 0.000000
v 0.151956 22.456184 -0.263195
v -0.151956 22.456184 -0.263195
v -0.303911 22.456184 -0.000000
v -0.151956 22.456184 0.263195
v 0.151956 22.456184 0.263195
v 0.303911 22.456184 0.000000
v 0.263193 22.567852 -0.455864
v -0.263193 22.567852 -0.455864
v -0.526386 22.567852 -0.000000
v -0.263193 22.567852 0.455864
v 0.263193 22.567852 0.455864
v 0.526386 22.567852 0.000000
v 0.018246 25.293861 -0.031604
v -0.018246 25.293861 -0.031604
v 0.000000 25.293861 0.000000
v -0.036493 25.293861 -0.000000
v -0.018246 25.293861 0.031604
v 0.018246 25.293861 0.031604
v 0.036493 25.293861 0.000000
vt 0.347578 0.281313
vt 0.504856 0.198308
vt 0.671094 0.148338
vt 0.829881 0.116292
vt 0.108934 0.523346
vt 0.214198 0.394903
vt 0.514395 0.511642
vt 0.639745 0.462888
vt 0.776526 0.454606
vt 0.274732 0.842522
vt 0.339250 0.718767
vt 0.412573 0.599588
vt 0.656044 0.776821
vt 0.540415 0.577496
vt 0.647362 0.534766
vt 0.776741 0.540303
vt 0.348736 0.941448
vt 0.401793 0.767307
vt 0.458472 0.656468
vt 0.642372 0.762643
vt 0.659602 0.751584
vt 0.679330 0.749536
vt 0.636528 0.819187
vt 0.627565 0.800616
vt 0.630764 0.779903
vt 0.691760 0.758563
vt 0.949458 0.598535
vt 0.911816 0.459129
vt 0.018733 0.651452
vn 0.000000 0.000880 -1.000000
vn 0.000000 0.000880 -1.000000
vn 0.000000 0.000880 -1.000000
vn 0.000000 0.000880 -1.000000
vn -0.866025 0.000880 -0.500000
vn -0.866025 0.000880 -0.500000
vn -0.866025 0.000880 -0.500000
vn -0.866025 0.000880 -0.500000
vn -0.866025 0.000880 0.500000
vn -0.866025 0.000880 0.500000
vn -0.866025 0.000880 0.500000
vn -0.866025 0.000880 0.500000
vn 0.000000 0.000880 1.000000
vn 0.000000 0.000880 1.000000
vn 0.000000 0.000880 1.000000
vn 0.000000 0.000880 1.000000
vn 0.866025 0.000880 0.500000
vn 0.866025 0.000880 0.500000
vn 0.866025 0.000880 0.500000
vn 0.866025 0.000880 0.500000
vn 0.866025 0.000880 -0.500000
vn 0.866025 0.000880 -0.500000
vn 0.866025 0.000880 -0.500000
vn 0.866025 0.000880 -0.500000
vn 0.000000 1.000000 0.000000
vn 0.000000 1.000000 0.000000
vn 0.000000 1.000000 0.000000
vn 0.000000 1.000000 0.000000
vn 0.000000 1.000000 0.000000
vn 0.000000 1.000000 0.000000
vn 0.000000 1.000000 0.000000
vn 0.000000 -0.865189 -0.501446
vn 0.000000 -0.865189 -0.501446
vn 0.000000 -0.865189 -0.501446
vn 0.000000 -0.865189 -0.501446
vn -0.434266 -0.865188 -0.250723
vn -0.434266 -0.865188 -0.250723
vn -0.434266 -0.865188 -0.250723
vn -0.434266 -0.865188 -0.250723
vn -0.434266 -0.865188 0.250724
vn -0.434266 -0.865188 0.250724
vn -0.434266 -0.865188 0.250724
vn -0.434266 -0.865188 0.250724
vn -0.000000 -0.865188 0.501448
vn -0.000000 -0.865188 0.501448
vn -0.000000 -0.865188 0.501448
vn -0.000000 -0.865188 0.501448
vn 0.434266 -0.865188 0.250725
vn 0.434266 -0.865188 0.250725
vn 0.434266 -0.865188 0.250725
vn 0.434266 -0.865188 0.250725
vn 0.434266 -0.865188 -0.250724
vn 0.434266 -0.865188 -0.250724
vn 0.434266 -0.865188 -0.250724
vn 0.434266 -0.865188 -0.250724
vn 0.000000 0.153783 -0.988105
vn 0.000000 0.153783 -0.988105
vn 0.000000 0.153783 -0.988105
vn 0.000000 0.153783 -0.988105
vn -0.855724 0.153783 -0.494052
vn -0.855724 0.153783 -0.494052
vn -0.855724 0.153783 -0.494052
vn -0.855724 0.153783 -0.494052
vn -0.855724 0.153783 0.494052
vn -0.855724 0.153783 0.494052
vn -0.855724 0.153783 0.494052
vn -0.855724 0.153783 0.494052
vn -0.000000 0.153783 0.988105
vn -0.000000 0.153783 0.988105
vn -0.000000 0.153783 0.988105
vn -0.000000 0.153783 0.988105
vn 0.855724 0.153783 0.494052
vn 0.855724 0.153783 0.494052
vn 0.855724 0.153783 0.494052
vn 0.855724 0.153783 0.494052
vn 0.855724 0.153783 -0.494052
vn 0.855724 0.153783 -0.494052
vn 0.855724 0.153783 -0.494052
vn 0.855724 0.153783 -0.494052
s off
g pCylinder3
usemtl initialShadingGroup
f 1/1/1 2/2/2 8/8/3 7/7/4
f 2/2/5 3/3/6 9/9/7 8/8/8
f 3/3/9 4/4/10 10/28/11 9/9/12
f 4/29/13 5/5/14 11/11/15 10/10/16
f 5/5/17 6/6/18 12/12/19 11/11/20
f 6/6/21 1/1/22 7/7/23 12/12/24
s 1
f 19/20/25 20/21/26 21/13/27
f 20/21/26 22/22/28 21/13/27
f 22/22/28 23/26/29 21/13/27
f 23/23/29 24/24/30 21/13/27
f 24/24/30 25/25/31 21/13/27
f 25/25/31 19/20/25 21/13/27
s off
f 7/7/32 8/8/33 14/15/34 13/14/35
f 8/8/36 9/9/37 15/16/38 14/15/39
f 9/9/40 10/28/41 16/27/42 15/16/43
f 10/10/44 11/11/45 17/18/46 16/17/47
f 11/11/48 12/12/49 18/19/50 17/18/51
f 12/12/52 7/7/53 13/14/54 18/19/55
f 13/14/56 14/15/57 20/21/58 19/20/59
f 14/15/60 15/16/61 22/22/62 20/21/63
f 15/16/64 16/27/65 23/26/66 22/22/67
f 16/17/68 17/18/69 24/24/70 23/23/71
f 17/18/72 18/19/73 25/25/74 24/24/75
f 18/19/76 13/14/77 19/20/78 25/25/79
