# This file uses centimeters as units for non-parametric coordinates.

mtllib PLATAFROMA_SUBIDA_3_escalado.mtl
g default
v -111.896191 -176.202228 -855.668504
v 38.076398 -176.202228 -855.668504
v -111.896191 159.978544 -855.668504
v 38.076398 159.978544 -855.668504
v -111.896191 235.528958 -1456.759840
v 38.076398 235.528958 -1456.759840
v -111.896191 -178.636799 -1456.759840
v 38.076398 -178.636799 -1456.759840
v 68.942052 -178.636799 -1456.759840
v 68.942052 -176.202228 -855.668504
v 68.942052 235.528958 -1456.759840
v 68.942052 159.978544 -855.668504
v -142.761845 -178.636799 -1456.759840
v -142.761845 -176.202228 -855.668504
v -142.761845 159.978544 -855.668504
v -142.761845 235.528958 -1456.759840
v 45.219699 171.554678 -855.668504
v 40.168627 169.462448 -855.668504
v 38.076398 164.576654 -855.668504
v 45.219699 247.435647 -1456.759840
v 38.076398 240.292347 -1456.759840
v 40.168627 245.343418 -1456.759840
v 66.849823 169.462448 -855.668504
v 61.798752 171.554678 -855.668504
v 68.942052 164.576654 -855.668504
v 61.798752 247.435647 -1456.759840
v 66.849823 245.343418 -1456.759840
v 68.942052 240.292347 -1456.759840
v -119.039491 171.554678 -855.668504
v -111.896191 164.576654 -855.668504
v -113.988414 169.462448 -855.668504
v -119.039491 247.435647 -1456.759840
v -113.988414 245.343418 -1456.759840
v -111.896191 240.292347 -1456.759840
v -140.669628 245.343418 -1456.759840
v -135.618545 247.435647 -1456.759840
v -142.761845 240.292347 -1456.759840
v -135.618545 171.554678 -855.668504
v -140.669628 169.462448 -855.668504
v -142.761845 164.576654 -855.668504
v 53.509225 240.292347 -1456.759840
v -127.329018 240.292347 -1456.759840
v 53.120698 164.576654 -855.668504
v -127.329018 164.576654 -855.668504
v -111.896191 231.667831 -1156.214172
v 38.076398 231.667831 -1156.214172
v 38.076398 236.431220 -1156.214172
v 40.168627 241.482291 -1156.214172
v 45.219699 243.574520 -1156.214172
v 61.798752 243.574520 -1156.214172
v 66.849823 241.482291 -1156.214172
v 68.942052 236.431220 -1156.214172
v 68.942052 231.667831 -1156.214172
v 68.942052 -177.419514 -1156.214172
v 38.076398 -177.419514 -1156.214172
v -111.896191 -177.419514 -1156.214172
v -142.761845 -177.419514 -1156.214172
v -142.761845 231.667831 -1156.214172
v -142.761845 236.431220 -1156.214172
v -140.669628 241.482291 -1156.214172
v -135.618545 243.574520 -1156.214172
v -119.039491 243.574520 -1156.214172
v -113.988414 241.482291 -1156.214172
v -111.896191 236.431220 -1156.214172
vt 0.218075 0.823634
vt 0.379330 0.821388
vt 0.854699 0.014650
vt 0.825606 0.014652
vt 0.854779 0.675314
vt 0.825723 0.675293
vt 0.370347 0.176366
vt 0.209091 0.178612
vt 0.412518 0.820926
vt 0.403535 0.175904
vt 0.906342 0.675309
vt 0.906244 0.014648
vt 0.175904 0.179074
vt 0.184887 0.824096
vt 0.774052 0.014648
vt 0.774167 0.675312
vt 0.871227 0.669464
vt 0.871137 0.020498
vt 0.889801 0.020534
vt 0.889891 0.669478
vt 0.809160 0.020495
vt 0.809271 0.669474
vt 0.790611 0.669464
vt 0.790500 0.020478
vt 0.859238 0.017669
vt 0.859276 0.672301
vt 0.901796 0.672302
vt 0.901750 0.017663
vt 0.821175 0.672290
vt 0.821109 0.017662
vt 0.778598 0.017654
vt 0.778663 0.672299
vt 0.864991 0.019920
vt 0.865072 0.670059
vt 0.895956 0.019914
vt 0.896040 0.670055
vt 0.815314 0.019903
vt 0.815419 0.670048
vt 0.784458 0.670058
vt 0.784353 0.019900
vt 0.879914 0.016150
vt 0.880592 0.673824
vt 0.799976 0.673818
vt 0.799799 0.016136
vt 0.187133 0.985352
vt 0.014648 0.181320
vt 0.206845 0.017357
vt 0.220321 0.984890
vt 0.401289 0.014648
vt 0.368101 0.015111
vt 0.587570 0.659747
vt 0.587516 0.014662
vt 0.748841 0.659733
vt 0.748787 0.014648
vt 0.381577 0.982644
vt 0.573774 0.818680
vt 0.173658 0.017819
vt 0.023632 0.826342
vt 0.414764 0.982181
vt 0.564791 0.173658
vt 0.825665 0.344972
vt 0.587543 0.337204
vt 0.748814 0.337191
vt 0.854739 0.344982
vt 0.859257 0.344985
vt 0.865032 0.344990
vt 0.871182 0.344981
vt 0.889846 0.345006
vt 0.895998 0.344985
vt 0.901773 0.344983
vt 0.906293 0.344979
vt 0.569282 0.496169
vt 0.408026 0.498415
vt 0.374839 0.498877
vt 0.213583 0.501123
vt 0.180396 0.501585
vt 0.019140 0.503831
vt 0.774109 0.344980
vt 0.778630 0.344977
vt 0.784405 0.344979
vt 0.790556 0.344971
vt 0.809216 0.344985
vt 0.815366 0.344976
vt 0.821142 0.344976
vn 0.000000 0.000000 1.000000
vn 0.000000 0.000000 1.000000
vn 0.000000 0.000000 1.000000
vn 0.000000 0.000000 1.000000
vn 0.000000 0.992193 0.124708
vn 0.000000 0.992193 0.124708
vn 0.000000 0.999918 0.012846
vn 0.000000 0.999918 0.012846
vn 0.000000 0.000000 -1.000000
vn 0.000000 0.000000 -1.000000
vn 0.000000 0.000000 -1.000000
vn 0.000000 0.000000 -1.000000
vn 0.000000 -0.999992 0.004050
vn 0.000000 -0.999992 0.004050
vn 0.000000 -0.999992 0.004050
vn 0.000000 -0.999992 0.004050
vn 1.000000 0.000000 0.000000
vn 1.000000 0.000000 0.000000
vn 1.000000 0.000000 0.000000
vn 1.000000 0.000000 0.000000
vn -1.000000 0.000000 0.000000
vn -1.000000 0.000000 0.000000
vn -1.000000 0.000000 0.000000
vn -1.000000 0.000000 0.000000
vn 0.000000 -0.999992 0.004050
vn 0.000000 -0.999992 0.004050
vn 0.000000 -0.999992 0.004050
vn 0.000000 -0.999992 0.004050
vn 0.000000 0.000000 -1.000000
vn 0.000000 0.000000 -1.000000
vn 0.000000 0.000000 -1.000000
vn 0.000000 0.000000 -1.000000
vn -0.096041 0.995295 0.012787
vn -0.093575 0.987870 0.123918
vn 0.093575 0.987870 0.123918
vn 0.096041 0.995295 0.012787
vn 0.000000 0.000000 1.000000
vn 0.000000 0.000000 1.000000
vn 0.000000 0.000000 1.000000
vn 0.000000 0.000000 1.000000
vn 0.000000 -0.999992 0.004050
vn 0.000000 -0.999992 0.004050
vn 0.000000 -0.999992 0.004050
vn 0.000000 -0.999992 0.004050
vn 0.000000 0.000000 1.000000
vn 0.000000 0.000000 1.000000
vn 0.000000 0.000000 1.000000
vn 0.000000 0.000000 1.000000
vn -0.093575 0.987870 0.123918
vn 0.093575 0.987870 0.123918
vn 0.096041 0.995295 0.012787
vn -0.096041 0.995295 0.012787
vn 0.000000 0.000000 -1.000000
vn 0.000000 0.000000 -1.000000
vn 0.000000 0.000000 -1.000000
vn 0.000000 0.000000 -1.000000
vn -1.000000 0.000000 0.000000
vn -1.000000 0.000000 0.000000
vn -0.974300 0.223265 0.029880
vn -0.977694 0.210015 0.002698
vn 0.974300 0.223265 0.029880
vn 1.000000 0.000000 0.000000
vn 1.000000 0.000000 0.000000
vn 0.977694 0.210015 0.002698
vn 0.974300 0.223264 0.029880
vn 1.000000 0.000000 0.000000
vn 1.000000 0.000000 0.000000
vn 0.977695 0.210014 0.002698
vn -1.000000 0.000000 0.000000
vn -1.000000 0.000000 0.000000
vn -0.974300 0.223263 0.029880
vn -0.977695 0.210014 0.002698
vn -0.921908 0.384771 0.045124
vn -0.923868 0.382680 0.004916
vn -0.379973 0.917332 0.118840
vn -0.382657 0.923814 0.011868
vn 0.379973 0.917332 0.118841
vn 0.382658 0.923814 0.011868
vn 0.921908 0.384771 0.045124
vn 0.923868 0.382680 0.004916
vn 0.379972 0.917332 0.118840
vn 0.382657 0.923814 0.011868
vn 0.921909 0.384770 0.045124
vn 0.923868 0.382679 0.004916
vn -0.382657 0.923814 0.011868
vn -0.379972 0.917332 0.118841
vn -0.923869 0.382678 0.004916
vn -0.921909 0.384769 0.045124
vn 0.000000 0.000000 1.000000
vn 0.000000 0.000000 1.000000
vn 0.000000 0.000000 1.000000
vn 0.000000 0.000000 -1.000000
vn 0.000000 0.000000 -1.000000
vn 0.000000 0.000000 -1.000000
vn 0.000000 0.000000 -1.000000
vn 0.000000 0.000000 -1.000000
vn 0.000000 0.000000 1.000000
vn 0.000000 0.000000 1.000000
vn 0.000000 0.000000 -1.000000
vn 0.000000 0.000000 -1.000000
vn 0.000000 0.000000 -1.000000
vn 0.000000 0.000000 -1.000000
vn 0.000000 0.000000 -1.000000
vn 0.000000 0.000000 -1.000000
vn 0.000000 0.000000 -1.000000
vn 0.000000 0.000000 -1.000000
vn 0.000000 0.000000 -1.000000
vn 0.000000 0.000000 1.000000
vn 0.000000 0.000000 1.000000
vn 0.000000 0.000000 1.000000
vn 0.000000 0.000000 1.000000
vn 0.000000 0.000000 1.000000
vn 0.000000 0.000000 1.000000
vn 0.000000 0.000000 1.000000
vn 0.000000 0.000000 1.000000
vn 0.000000 0.000000 1.000000
vn 0.000000 0.972711 0.232021
vn 0.000000 0.972711 0.232021
vn -1.000000 0.000000 0.000000
vn -0.982058 0.183397 0.043897
vn -0.917667 0.386434 0.092495
vn -0.373638 0.902038 0.216155
vn -0.097641 0.967822 0.231919
vn 0.097641 0.967822 0.231920
vn 0.373638 0.902037 0.216156
vn 0.917667 0.386434 0.092495
vn 0.982058 0.183397 0.043897
vn 1.000000 0.000000 0.000000
vn 1.000000 0.000000 0.000000
vn 1.000000 0.000000 0.000000
vn 0.000000 -0.999992 0.004050
vn 0.000000 -0.999992 0.004050
vn 0.000000 -0.999992 0.004050
vn 0.000000 -0.999992 0.004050
vn 0.000000 -0.999992 0.004050
vn 0.000000 -0.999992 0.004050
vn -1.000000 0.000000 0.000000
vn -1.000000 0.000000 0.000000
vn -1.000000 0.000000 0.000000
vn -0.982059 0.183395 0.043897
vn -0.917668 0.386432 0.092495
vn -0.373637 0.902038 0.216156
vn -0.097641 0.967822 0.231920
vn 0.097641 0.967822 0.231919
vn 0.373637 0.902038 0.216155
vn 0.917668 0.386433 0.092495
vn 0.982059 0.183396 0.043897
vn 1.000000 0.000000 0.000000
s off
g pasted__pCube4 group3
usemtl initialShadingGroup
f 1/1/1 2/2/2 4/55/3 3/48/4
s 1
f 45/62/5 46/63/6 6/53/7 5/51/8
s off
f 5/47/9 6/50/10 8/7/11 7/8/12
s 2
f 7/8/13 8/7/14 55/74/15 56/75/16
s 3
f 53/72/17 54/73/18 9/10/19 11/60/20
s 4
f 13/13/21 57/76/22 58/77/23 16/46/24
s 5
f 54/73/25 55/74/26 8/7/27 9/10/28
s 6
f 8/7/29 6/50/30 11/49/31 9/10/32
s 7
f 20/17/33 49/67/34 50/68/35 26/20/36
s 8
f 4/55/37 2/2/38 10/9/39 12/59/40
s 9
f 7/8/41 56/75/42 57/76/43 13/13/44
s 10
f 1/1/45 3/48/46 15/45/47 14/14/48
s 11
f 61/81/49 62/82/50 32/22/51 36/23/52
s 12
f 5/47/53 7/8/54 13/13/55 16/57/56
s 13
f 6/5/57 46/64/58 47/65/59 21/26/60
s 14
f 52/70/61 53/71/62 11/11/63 28/27/64
s 15
f 64/84/65 45/61/66 5/6/67 34/29/68
s 16
f 16/16/69 58/78/70 59/79/71 37/32/72
s 13
f 47/65/59 48/66/73 22/34/74 21/26/60
s 7
f 48/66/75 49/67/34 20/17/33 22/34/76
f 50/68/35 51/69/77 27/36/78 26/20/36
s 14
f 51/69/79 52/70/61 28/27/64 27/36/80
s 11
f 62/82/50 63/83/81 33/38/82 32/22/51
s 15
f 63/83/83 64/84/65 34/29/68 33/38/84
s 11
f 36/23/52 35/39/85 60/80/86 61/81/49
s 16
f 35/39/87 37/32/72 59/79/71 60/80/88
s 8
f 23/35/89 24/19/90 43/41/91
s 6
f 41/42/92 6/5/30 21/26/93
s 12
f 35/39/94 42/43/95 37/32/96
s 10
f 44/44/97 3/4/46 30/30/98
s 6
f 20/17/99 41/42/92 22/34/100
f 28/27/101 41/42/92 27/36/102
f 22/34/100 41/42/92 21/26/93
f 26/20/103 41/42/92 20/17/99
f 27/36/102 41/42/92 26/20/103
f 11/11/31 41/42/92 28/27/101
f 11/11/31 6/5/30 41/42/92
s 12
f 5/6/53 42/43/95 34/29/104
f 42/43/95 33/38/105 34/29/104
f 35/39/94 36/23/106 42/43/95
f 42/43/95 32/22/107 33/38/105
f 42/43/95 36/23/106 32/22/107
f 37/32/96 42/43/95 16/16/56
f 16/16/56 42/43/95 5/6/53
s 8
f 25/28/108 43/41/91 12/12/40
f 43/41/91 18/33/109 19/25/110
f 23/35/89 43/41/91 25/28/108
f 43/41/91 24/19/90 17/18/111
f 43/41/91 17/18/111 18/33/109
f 4/3/37 43/41/91 19/25/110
f 12/12/40 43/41/91 4/3/37
s 10
f 38/24/112 44/44/97 29/21/113
f 39/40/114 44/44/97 38/24/112
f 31/37/115 44/44/97 30/30/98
f 29/21/113 44/44/97 31/37/115
f 40/31/116 44/44/97 39/40/114
f 15/15/47 44/44/97 40/31/116
f 15/15/47 3/4/46 44/44/97
s 1
f 3/52/117 4/54/118 46/63/6 45/62/5
s 13
f 47/65/59 46/64/58 4/3/119 19/25/120
f 19/25/120 18/33/121 48/66/73 47/65/59
s 7
f 18/33/122 17/18/123 49/67/34 48/66/75
f 50/68/35 49/67/34 17/18/123 24/19/124
f 24/19/124 23/35/125 51/69/77 50/68/35
s 14
f 23/35/126 25/28/127 52/70/61 51/69/79
f 12/12/128 53/71/62 52/70/61 25/28/127
s 3
f 10/9/129 54/73/18 53/72/17 12/56/130
s 5
f 2/2/131 55/74/26 54/73/25 10/9/132
s 2
f 56/75/16 55/74/15 2/2/133 1/1/134
s 9
f 57/76/43 56/75/42 1/1/135 14/14/136
s 4
f 58/77/23 57/76/22 14/14/137 15/58/138
s 16
f 59/79/71 58/78/70 15/15/139 40/31/140
f 60/80/88 59/79/71 40/31/140 39/40/141
s 11
f 61/81/49 60/80/86 39/40/142 38/24/143
f 29/21/144 62/82/50 61/81/49 38/24/143
f 29/21/144 31/37/145 63/83/81 62/82/50
s 15
f 31/37/146 30/30/147 64/84/65 63/83/83
f 3/4/148 45/61/66 64/84/65 30/30/147
