# This file uses centimeters as units for non-parametric coordinates.

mtllib PLATAFROMA_SUBIDA_1_escala.mtl
g default
v -111.896191 -178.636823 588.070948
v 38.076398 -178.636823 588.070948
v -111.896191 -127.646073 588.070948
v 38.076398 -127.646073 588.070948
v -111.896191 -8.147905 -9.771444
v 38.076398 -8.147905 -9.771444
v -111.896191 -178.636823 -11.819395
v 38.076398 -178.636823 -11.819395
v 68.942052 -178.636823 -11.819395
v 68.942052 -178.636823 588.070948
v 68.942052 -8.147905 -9.771444
v 68.942052 -127.646073 588.070948
v -142.761845 -178.636823 -11.819395
v -142.761845 -178.636823 588.070948
v -142.761845 -127.646073 588.070948
v -142.761845 -8.147905 -9.771444
v 45.219699 -115.739384 588.070948
v 40.168627 -117.831613 588.070948
v 38.076398 -122.882684 588.070948
v 45.219699 3.353153 -9.771408
v 38.076398 -3.546707 -9.771432
v 40.168627 1.332209 -9.771420
v 66.849823 -117.831613 588.070948
v 61.798752 -115.739384 588.070948
v 68.942052 -122.882684 588.070948
v 61.798752 3.353153 -9.771408
v 66.849823 1.332209 -9.771420
v 68.942052 -3.546707 -9.771432
v -119.039491 -115.739384 588.070948
v -111.896191 -122.882684 588.070948
v -113.988414 -117.831613 588.070948
v -119.039491 3.353153 -9.771408
v -113.988414 1.332209 -9.771420
v -111.896191 -3.546707 -9.771432
v -140.669628 1.332209 -9.771420
v -135.618545 3.353153 -9.771408
v -142.761845 -3.546707 -9.771432
v -135.618545 -115.739384 588.070948
v -140.669628 -117.831613 588.070948
v -142.761845 -122.882684 588.070948
v 53.509225 -4.296468 -9.771456
v -127.329018 -4.296468 -9.771456
v 53.120698 -122.882684 588.070948
v -127.329018 -122.882684 588.070948
v -111.896191 -90.180505 288.125806
v 38.076398 -90.180505 288.125806
v 38.076398 -85.417081 288.125758
v 40.168627 -80.365986 288.125770
v 45.219699 -78.273769 288.125758
v 61.798752 -78.273769 288.125758
v 66.849823 -80.365986 288.125770
v 68.942052 -85.417081 288.125758
v 68.942052 -90.180505 288.125806
v 68.942052 -178.636823 288.125782
v 38.076398 -178.636823 288.125782
v -111.896191 -178.636823 288.125782
v -142.761845 -178.636823 288.125782
v -142.761845 -90.180505 288.125806
v -142.761845 -85.417081 288.125758
v -140.669628 -80.365986 288.125770
v -135.618545 -78.273769 288.125758
v -119.039491 -78.273769 288.125758
v -113.988414 -80.365986 288.125770
v -111.896191 -85.417081 288.125758
v -111.896191 -178.636823 138.153194
v 38.076398 -178.636823 138.153194
v 68.942052 -178.636823 138.153194
v 68.942052 -46.963629 134.057243
v 68.942052 -42.362550 135.290107
v 66.849823 -37.483574 136.597415
v 61.798752 -35.462678 137.138920
v 45.219699 -35.462678 137.138920
v 40.168627 -37.483574 136.597415
v 38.076398 -42.362550 135.290107
v 38.076398 -46.963629 134.057243
v -111.896191 -46.963629 134.057243
v -111.896191 -42.362550 135.290107
v -113.988414 -37.483574 136.597415
v -119.039491 -35.462678 137.138920
v -135.618545 -35.462678 137.138920
v -140.669628 -37.483574 136.597415
v -142.761845 -42.362550 135.290107
v -142.761845 -46.963629 134.057243
v -142.761845 -178.636823 138.153194
v -111.896191 -127.646049 438.098359
v 38.076398 -127.646049 438.098359
v 38.076398 -122.882672 438.098359
v 40.168627 -117.831595 438.098359
v 45.219699 -115.739366 438.098359
v 61.798752 -115.739366 438.098359
v 66.849823 -117.831595 438.098359
v 68.942052 -122.882672 438.098359
v 68.942052 -127.646049 438.098359
v 68.942052 -178.636823 438.098359
v 38.076398 -178.636823 438.098359
v -111.896191 -178.636823 438.098359
v -142.761845 -178.636823 438.098359
v -142.761845 -127.646049 438.098359
v -142.761845 -122.882672 438.098359
v -140.669628 -117.831595 438.098359
v -135.618545 -115.739366 438.098359
v -119.039491 -115.739366 438.098359
v -113.988414 -117.831595 438.098359
v -111.896191 -122.882672 438.098359
vt 0.218075 0.823634
vt 0.379330 0.821388
vt 0.854699 0.014650
vt 0.825606 0.014652
vt 0.854779 0.675314
vt 0.825723 0.675293
vt 0.370347 0.176366
vt 0.209091 0.178612
vt 0.412518 0.820926
vt 0.403535 0.175904
vt 0.906342 0.675309
vt 0.906244 0.014648
vt 0.175904 0.179074
vt 0.184887 0.824096
vt 0.774052 0.014648
vt 0.774167 0.675312
vt 0.871227 0.669464
vt 0.871137 0.020498
vt 0.889801 0.020534
vt 0.889891 0.669478
vt 0.809160 0.020495
vt 0.809271 0.669474
vt 0.790611 0.669464
vt 0.790500 0.020478
vt 0.859238 0.017669
vt 0.859276 0.672301
vt 0.901796 0.672302
vt 0.901750 0.017663
vt 0.821175 0.672290
vt 0.821109 0.017662
vt 0.778598 0.017654
vt 0.778663 0.672299
vt 0.864991 0.019920
vt 0.865072 0.670059
vt 0.895956 0.019914
vt 0.896040 0.670055
vt 0.815314 0.019903
vt 0.815419 0.670048
vt 0.784458 0.670058
vt 0.784353 0.019900
vt 0.879914 0.016150
vt 0.880592 0.673824
vt 0.799976 0.673818
vt 0.799799 0.016136
vt 0.187133 0.985352
vt 0.014648 0.181320
vt 0.206845 0.017357
vt 0.220321 0.984890
vt 0.401289 0.014648
vt 0.368101 0.015111
vt 0.587570 0.659747
vt 0.587516 0.014662
vt 0.748841 0.659733
vt 0.748787 0.014648
vt 0.381577 0.982644
vt 0.573774 0.818680
vt 0.173658 0.017819
vt 0.023632 0.826342
vt 0.414764 0.982181
vt 0.564791 0.173658
vt 0.825665 0.344972
vt 0.587543 0.337204
vt 0.748814 0.337191
vt 0.854739 0.344982
vt 0.859257 0.344985
vt 0.865032 0.344990
vt 0.871182 0.344981
vt 0.889846 0.345006
vt 0.895998 0.344985
vt 0.901773 0.344983
vt 0.906293 0.344979
vt 0.569282 0.496169
vt 0.408026 0.498415
vt 0.374839 0.498877
vt 0.213583 0.501123
vt 0.180396 0.501585
vt 0.019140 0.503831
vt 0.774109 0.344980
vt 0.778630 0.344977
vt 0.784405 0.344979
vt 0.790556 0.344971
vt 0.809216 0.344985
vt 0.815366 0.344976
vt 0.821142 0.344976
vt 0.211337 0.339868
vt 0.372593 0.337622
vt 0.405781 0.337159
vt 0.906318 0.510144
vt 0.567036 0.334913
vt 0.901784 0.508643
vt 0.896019 0.507520
vt 0.889869 0.507242
vt 0.871205 0.507222
vt 0.865052 0.507524
vt 0.859267 0.508643
vt 0.748827 0.498462
vt 0.854759 0.510148
vt 0.825694 0.510133
vt 0.587556 0.498476
vt 0.821159 0.508633
vt 0.815392 0.507512
vt 0.809243 0.507230
vt 0.790583 0.507217
vt 0.784432 0.507518
vt 0.778647 0.508638
vt 0.016894 0.342576
vt 0.774138 0.510146
vt 0.178150 0.340330
vt 0.825636 0.179812
vt 0.587530 0.175933
vt 0.748801 0.175920
vt 0.854719 0.179816
vt 0.859248 0.181327
vt 0.865011 0.182455
vt 0.871160 0.182740
vt 0.889824 0.182770
vt 0.895977 0.182450
vt 0.901761 0.181323
vt 0.906269 0.179814
vt 0.571528 0.657424
vt 0.410272 0.659670
vt 0.377085 0.660133
vt 0.215829 0.662379
vt 0.182642 0.662841
vt 0.021386 0.665087
vt 0.774081 0.179814
vt 0.778614 0.181316
vt 0.784379 0.182439
vt 0.790528 0.182724
vt 0.809188 0.182740
vt 0.815340 0.182439
vt 0.821126 0.181319
vn 0.000000 0.000000 1.000000
vn 0.000000 0.000000 1.000000
vn 0.000000 0.000000 1.000000
vn 0.000000 0.000000 1.000000
vn 0.000000 0.966547 0.256489
vn 0.000000 0.966547 0.256489
vn 0.000000 0.964114 0.265490
vn 0.000000 0.964114 0.265490
vn 0.000000 0.012011 -0.999928
vn 0.000000 0.012011 -0.999928
vn 0.000000 0.012011 -0.999928
vn 0.000000 0.012011 -0.999928
vn 0.000000 -1.000000 0.000000
vn 0.000000 -1.000000 0.000000
vn 0.000000 -1.000000 0.000000
vn 0.000000 -1.000000 0.000000
vn 1.000000 0.000000 0.000000
vn 1.000000 0.000000 0.000000
vn 1.000000 0.000000 0.000000
vn 1.000000 0.000000 0.000000
vn -1.000000 -0.000000 0.000000
vn -1.000000 -0.000000 0.000000
vn -1.000000 0.000000 0.000000
vn -1.000000 0.000000 0.000000
vn 0.000000 -1.000000 0.000000
vn 0.000000 -1.000000 0.000000
vn 0.000000 -1.000000 0.000000
vn 0.000000 -1.000000 0.000000
vn 0.000000 0.012011 -0.999928
vn -0.000000 0.011922 -0.999929
vn 0.000000 0.011922 -0.999929
vn 0.000000 0.012011 -0.999928
vn 0.093650 0.960204 0.263130
vn -0.093650 0.960204 0.263130
vn -0.094363 0.961855 0.256770
vn 0.094363 0.961855 0.256770
vn 0.000000 0.000000 1.000000
vn 0.000000 0.000000 1.000000
vn 0.000000 0.000000 1.000000
vn 0.000000 0.000000 1.000000
vn 0.000000 -1.000000 0.000000
vn 0.000000 -1.000000 0.000000
vn 0.000000 -1.000000 0.000000
vn 0.000000 -1.000000 0.000000
vn 0.000000 0.000000 1.000000
vn 0.000000 0.000000 1.000000
vn 0.000000 0.000000 1.000000
vn 0.000000 0.000000 1.000000
vn -0.094363 0.961855 0.256770
vn 0.094363 0.961855 0.256770
vn 0.093650 0.960204 0.263130
vn -0.093650 0.960204 0.263130
vn 0.000000 0.011922 -0.999929
vn 0.000000 0.012011 -0.999928
vn 0.000000 0.012011 -0.999928
vn -0.000000 0.011922 -0.999929
vn -0.976705 0.206928 0.056816
vn -1.000000 -0.000000 0.000000
vn -1.000000 -0.000001 0.000000
vn -0.977532 0.203819 0.053747
vn 0.977532 0.203820 0.053746
vn 1.000000 0.000000 0.000000
vn 1.000000 0.000000 0.000000
vn 0.976705 0.206928 0.056816
vn 0.977532 0.203818 0.053746
vn 1.000000 -0.000001 0.000000
vn 1.000000 -0.000000 0.000000
vn 0.976705 0.206927 0.056816
vn -0.976705 0.206927 0.056815
vn -1.000000 -0.000000 0.000000
vn -1.000000 0.000000 0.000000
vn -0.977532 0.203818 0.053746
vn -0.920625 0.377075 0.101306
vn -0.920254 0.377362 0.103590
vn -0.374612 0.896122 0.237974
vn -0.374180 0.894357 0.245182
vn 0.374612 0.896122 0.237974
vn 0.374181 0.894357 0.245182
vn 0.920625 0.377076 0.101306
vn 0.920254 0.377362 0.103590
vn 0.374611 0.896122 0.237974
vn 0.374180 0.894357 0.245182
vn 0.920626 0.377074 0.101306
vn 0.920254 0.377361 0.103590
vn -0.374180 0.894358 0.245182
vn -0.374611 0.896122 0.237974
vn -0.920254 0.377360 0.103590
vn -0.920626 0.377074 0.101306
vn 0.000000 0.000000 1.000000
vn 0.000000 0.000000 1.000000
vn 0.000000 0.000000 1.000000
vn -0.000000 0.000001 -1.000000
vn -0.000000 0.000003 -1.000000
vn 0.000001 0.000004 -1.000000
vn 0.000000 0.000001 -1.000000
vn -0.000000 0.000003 -1.000000
vn 0.000000 0.000000 1.000000
vn 0.000000 0.000000 1.000000
vn -0.000001 0.000006 -1.000000
vn 0.000001 0.000004 -1.000000
vn 0.000000 0.000003 -1.000000
vn -0.000001 0.000004 -1.000000
vn 0.000001 0.000006 -1.000000
vn 0.000001 0.000003 -1.000000
vn -0.000000 0.000004 -1.000000
vn -0.000001 0.000006 -1.000000
vn 0.000001 0.000006 -1.000000
vn 0.000000 0.000000 1.000000
vn 0.000000 0.000000 1.000000
vn 0.000000 0.000000 1.000000
vn 0.000000 0.000000 1.000000
vn 0.000002 0.000000 1.000000
vn -0.000002 0.000000 1.000000
vn 0.000001 0.000000 1.000000
vn -0.000001 0.000000 1.000000
vn 0.000000 0.000000 1.000000
vn 0.000000 0.992289 0.123945
vn 0.000000 0.992289 0.123945
vn -1.000000 0.000000 0.000000
vn -0.980769 0.193889 0.022343
vn -0.922679 0.382188 0.050940
vn -0.380312 0.918150 0.111191
vn -0.097662 0.987441 0.124185
vn 0.097662 0.987441 0.124185
vn 0.380311 0.918150 0.111190
vn 0.922680 0.382188 0.050940
vn 0.980769 0.193889 0.022343
vn 1.000000 0.000000 0.000000
vn 1.000000 0.000000 0.000000
vn 1.000000 0.000000 0.000000
vn 0.000000 -1.000000 0.000000
vn 0.000000 -1.000000 0.000000
vn 0.000000 -1.000000 0.000000
vn 0.000000 -1.000000 0.000000
vn 0.000000 -1.000000 0.000000
vn 0.000000 -1.000000 0.000000
vn -1.000000 0.000000 0.000000
vn -1.000000 0.000000 0.000000
vn -1.000000 0.000000 0.000000
vn -0.980769 0.193888 0.022342
vn -0.922681 0.382185 0.050940
vn -0.380310 0.918151 0.111190
vn -0.097662 0.987441 0.124185
vn 0.097662 0.987441 0.124185
vn 0.380311 0.918150 0.111191
vn 0.922680 0.382187 0.050940
vn 0.980769 0.193889 0.022342
vn 1.000000 0.000000 0.000000
vn 0.000000 -1.000000 0.000000
vn 0.000000 -1.000000 0.000000
vn 0.000000 -1.000000 0.000000
vn 0.000000 -1.000000 0.000000
vn 1.000000 0.000000 0.000000
vn 1.000000 0.000000 0.000000
vn 1.000000 0.000000 0.000000
vn 0.968846 0.239320 0.063750
vn 0.919172 0.380585 0.101381
vn 0.371785 0.897411 0.237547
vn 0.088654 0.962990 0.254540
vn -0.088654 0.962990 0.254540
vn -0.371785 0.897411 0.237547
vn -0.919172 0.380585 0.101381
vn -0.968846 0.239320 0.063750
vn -1.000000 0.000001 0.000000
vn 0.000000 0.965459 0.260553
vn 0.000000 0.965459 0.260553
vn 1.000000 0.000002 0.000000
vn 0.968845 0.239320 0.063750
vn 0.919172 0.380585 0.101380
vn 0.371785 0.897412 0.237547
vn 0.088654 0.962990 0.254540
vn -0.088654 0.962990 0.254540
vn -0.371784 0.897412 0.237547
vn -0.919173 0.380582 0.101380
vn -0.968846 0.239318 0.063750
vn -1.000000 -0.000000 0.000000
vn -1.000000 -0.000000 0.000000
vn -1.000000 -0.000000 0.000000
vn 0.000000 -1.000000 0.000000
vn 0.000000 -1.000000 0.000000
vn 0.000000 1.000000 0.000000
vn 0.000000 1.000000 0.000000
vn -1.000000 0.000000 0.000000
vn -0.978024 0.208494 0.000000
vn -0.923879 0.382685 0.000000
vn -0.382685 0.923879 0.000000
vn -0.096278 0.995354 0.000000
vn 0.096278 0.995354 0.000000
vn 0.382685 0.923879 0.000000
vn 0.923879 0.382685 0.000000
vn 0.978024 0.208494 0.000000
vn 1.000000 0.000000 0.000000
vn 1.000000 0.000000 0.000000
vn 1.000000 0.000000 0.000000
vn 0.000000 -1.000000 0.000000
vn 0.000000 -1.000000 0.000000
vn 0.000000 -1.000000 0.000000
vn 0.000000 -1.000000 0.000000
vn 0.000000 -1.000000 0.000000
vn 0.000000 -1.000000 0.000000
vn -1.000000 0.000000 0.000000
vn -1.000000 0.000000 0.000000
vn -1.000000 0.000000 0.000000
vn -0.978024 0.208492 0.000000
vn -0.923880 0.382683 0.000000
vn -0.382684 0.923880 0.000000
vn -0.096278 0.995354 0.000000
vn 0.096278 0.995354 0.000000
vn 0.382684 0.923879 0.000000
vn 0.923879 0.382684 0.000000
vn 0.978024 0.208493 0.000000
vn 1.000000 0.000000 0.000000
s off
g pasted__pCube2 group3
usemtl initialShadingGroup
f 1/1/1 2/2/2 4/55/3 3/48/4
s 1
f 45/62/5 46/63/6 75/96/7 76/99/8
s off
f 5/47/9 6/50/10 8/7/11 7/8/12
s 2
f 65/85/13 66/86/14 55/74/15 56/75/16
s 3
f 53/72/17 54/73/18 67/87/19 68/89/20
s 4
f 83/106/21 84/108/22 57/76/23 58/77/24
s 5
f 54/73/25 55/74/26 66/86/27 67/87/28
s 6
f 8/7/29 6/50/30 11/49/31 9/10/32
s 7
f 71/92/33 72/93/34 49/67/35 50/68/36
s 8
f 4/55/37 2/2/38 10/9/39 12/59/40
s 9
f 84/108/41 65/85/42 56/75/43 57/76/44
s 10
f 1/1/45 3/48/46 15/45/47 14/14/48
s 11
f 61/81/49 62/82/50 79/102/51 80/103/52
s 12
f 5/47/53 7/8/54 13/13/55 16/57/56
s 13
f 74/95/57 75/97/58 46/64/59 47/65/60
s 14
f 52/70/61 53/71/62 68/88/63 69/90/64
s 15
f 64/84/65 45/61/66 76/98/67 77/100/68
s 16
f 82/105/69 83/107/70 58/78/71 59/79/72
s 13
f 47/65/60 48/66/73 73/94/74 74/95/57
s 7
f 48/66/75 49/67/35 72/93/34 73/94/76
f 50/68/36 51/69/77 70/91/78 71/92/33
s 14
f 51/69/79 52/70/61 69/90/64 70/91/80
s 11
f 62/82/50 63/83/81 78/101/82 79/102/51
s 15
f 63/83/83 64/84/65 77/100/68 78/101/84
s 11
f 80/103/52 81/104/85 60/80/86 61/81/49
s 16
f 81/104/87 82/105/69 59/79/72 60/80/88
s 8
f 23/35/89 24/19/90 43/41/91
s 6
f 41/42/92 6/5/30 21/26/93
s 12
f 35/39/94 42/43/95 37/32/96
s 10
f 44/44/97 3/4/46 30/30/98
s 6
f 20/17/99 41/42/92 22/34/100
f 28/27/101 41/42/92 27/36/102
f 22/34/100 41/42/92 21/26/93
f 26/20/103 41/42/92 20/17/99
f 27/36/102 41/42/92 26/20/103
f 11/11/31 41/42/92 28/27/101
f 11/11/31 6/5/30 41/42/92
s 12
f 5/6/53 42/43/95 34/29/104
f 42/43/95 33/38/105 34/29/104
f 35/39/94 36/23/106 42/43/95
f 42/43/95 32/22/107 33/38/105
f 42/43/95 36/23/106 32/22/107
f 37/32/96 42/43/95 16/16/56
f 16/16/56 42/43/95 5/6/53
s 8
f 25/28/108 43/41/91 12/12/40
f 43/41/91 18/33/109 19/25/110
f 23/35/89 43/41/91 25/28/108
f 43/41/91 24/19/90 17/18/111
f 43/41/91 17/18/111 18/33/109
f 4/3/37 43/41/91 19/25/110
f 12/12/40 43/41/91 4/3/37
s 10
f 38/24/112 44/44/97 29/21/113
f 39/40/114 44/44/97 38/24/112
f 31/37/115 44/44/97 30/30/98
f 29/21/113 44/44/97 31/37/115
f 40/31/116 44/44/97 39/40/114
f 15/15/47 44/44/97 40/31/116
f 15/15/47 3/4/46 44/44/97
s 1
f 85/110/117 86/111/118 46/63/6 45/62/5
s 13
f 47/65/60 46/64/59 86/112/119 87/113/120
f 87/113/120 88/114/121 48/66/73 47/65/60
s 7
f 88/114/122 89/115/123 49/67/35 48/66/75
f 50/68/36 49/67/35 89/115/123 90/116/124
f 90/116/124 91/117/125 51/69/77 50/68/36
s 14
f 91/117/126 92/118/127 52/70/61 51/69/79
f 92/118/127 93/119/128 53/71/62 52/70/61
s 3
f 93/120/129 94/121/130 54/73/18 53/72/17
s 5
f 94/121/131 95/122/132 55/74/26 54/73/25
s 2
f 56/75/16 55/74/15 95/122/133 96/123/134
s 9
f 57/76/44 56/75/43 96/123/135 97/124/136
s 4
f 58/77/24 57/76/23 97/124/137 98/125/138
s 16
f 59/79/72 58/78/71 98/126/139 99/127/140
f 60/80/88 59/79/72 99/127/140 100/128/141
s 11
f 61/81/49 60/80/86 100/128/142 101/129/143
f 101/129/143 102/130/144 62/82/50 61/81/49
f 102/130/144 103/131/145 63/83/81 62/82/50
s 15
f 103/131/146 104/132/147 64/84/65 63/83/83
f 104/132/147 85/109/148 45/61/66 64/84/65
s 2
f 7/8/149 8/7/150 66/86/14 65/85/13
s 5
f 67/87/28 66/86/27 8/7/151 9/10/152
s 3
f 68/89/20 67/87/19 9/10/153 11/60/154
s 14
f 69/90/64 68/88/63 11/11/155 28/27/156
f 70/91/80 69/90/64 28/27/156 27/36/157
s 7
f 71/92/33 70/91/78 27/36/158 26/20/159
f 20/17/160 72/93/34 71/92/33 26/20/159
f 73/94/76 72/93/34 20/17/160 22/34/161
s 13
f 74/95/57 73/94/74 22/34/162 21/26/163
f 6/5/164 75/97/58 74/95/57 21/26/163
s 1
f 76/99/8 75/96/7 6/53/165 5/51/166
s 15
f 77/100/68 76/98/67 5/6/167 34/29/168
f 78/101/84 77/100/68 34/29/168 33/38/169
s 11
f 79/102/51 78/101/82 33/38/170 32/22/171
f 80/103/52 79/102/51 32/22/171 36/23/172
f 36/23/172 35/39/173 81/104/85 80/103/52
s 16
f 35/39/174 37/32/175 82/105/69 81/104/87
f 16/16/176 83/107/70 82/105/69 37/32/175
s 4
f 13/13/177 84/108/22 83/106/21 16/46/178
s 9
f 7/8/179 65/85/42 84/108/41 13/13/180
s 1
f 3/52/181 4/54/182 86/111/118 85/110/117
s 13
f 87/113/120 86/112/119 4/3/183 19/25/184
f 19/25/184 18/33/185 88/114/121 87/113/120
s 7
f 18/33/186 17/18/187 89/115/123 88/114/122
f 90/116/124 89/115/123 17/18/187 24/19/188
f 24/19/188 23/35/189 91/117/125 90/116/124
s 14
f 23/35/190 25/28/191 92/118/127 91/117/126
f 12/12/192 93/119/128 92/118/127 25/28/191
s 3
f 10/9/193 94/121/130 93/120/129 12/56/194
s 5
f 2/2/195 95/122/132 94/121/131 10/9/196
s 2
f 96/123/134 95/122/133 2/2/197 1/1/198
s 9
f 97/124/136 96/123/135 1/1/199 14/14/200
s 4
f 98/125/138 97/124/137 14/14/201 15/58/202
s 16
f 99/127/140 98/126/139 15/15/203 40/31/204
f 100/128/141 99/127/140 40/31/204 39/40/205
s 11
f 101/129/143 100/128/142 39/40/206 38/24/207
f 29/21/208 102/130/144 101/129/143 38/24/207
f 29/21/208 31/37/209 103/131/145 102/130/144
s 15
f 31/37/210 30/30/211 104/132/147 103/131/146
f 3/4/212 85/109/148 104/132/147 30/30/211
