# This file uses centimeters as units for non-parametric coordinates.

mtllib PLATAFORMA_LISA_escalada.mtl
g default
v -111.896191 -178.636823 1277.247020
v 38.076398 -178.636823 1277.247020
v -111.896191 -127.646073 1277.247020
v 38.076398 -127.646073 1277.247020
v -111.896191 -127.646073 677.356665
v 38.076398 -127.646073 677.356665
v -111.896191 -178.636823 677.356665
v 38.076398 -178.636823 677.356665
v 68.942052 -178.636823 677.356665
v 68.942052 -178.636823 1277.247020
v 68.942052 -127.646073 677.356665
v 68.942052 -127.646073 1277.247020
v -142.761845 -178.636823 677.356665
v -142.761845 -178.636823 1277.247020
v -142.761845 -127.646073 1277.247020
v -142.761845 -127.646073 677.356665
v 45.219699 -115.739384 1277.247020
v 40.168627 -117.831613 1277.247020
v 38.076398 -122.882684 1277.247020
v 45.219699 -115.739384 677.356665
v 38.076398 -122.882684 677.356665
v 40.168627 -117.831613 677.356665
v 66.849823 -117.831613 1277.247020
v 61.798752 -115.739384 1277.247020
v 68.942052 -122.882684 1277.247020
v 61.798752 -115.739384 677.356665
v 66.849823 -117.831613 677.356665
v 68.942052 -122.882684 677.356665
v -119.039491 -115.739384 1277.247020
v -111.896191 -122.882684 1277.247020
v -113.988414 -117.831613 1277.247020
v -119.039491 -115.739384 677.356665
v -113.988414 -117.831613 677.356665
v -111.896191 -122.882684 677.356665
v -140.669628 -117.831613 677.356665
v -135.618545 -115.739384 677.356665
v -142.761845 -122.882684 677.356665
v -135.618545 -115.739384 1277.247020
v -140.669628 -117.831613 1277.247020
v -142.761845 -122.882684 1277.247020
v 53.509225 -122.882684 677.356665
v -127.329018 -122.882684 677.356665
v 53.120698 -122.882684 1277.247020
v -127.329018 -122.882684 1277.247020
vt 0.218075 0.823634
vt 0.379330 0.821388
vt 0.854699 0.014650
vt 0.825606 0.014652
vt 0.854779 0.675314
vt 0.825723 0.675293
vt 0.370347 0.176366
vt 0.209091 0.178612
vt 0.412518 0.820926
vt 0.403535 0.175904
vt 0.906342 0.675309
vt 0.906244 0.014648
vt 0.175904 0.179074
vt 0.184887 0.824096
vt 0.774052 0.014648
vt 0.774167 0.675312
vt 0.871227 0.669464
vt 0.871137 0.020498
vt 0.889801 0.020534
vt 0.889891 0.669478
vt 0.809160 0.020495
vt 0.809271 0.669474
vt 0.790611 0.669464
vt 0.790500 0.020478
vt 0.859238 0.017669
vt 0.859276 0.672301
vt 0.901796 0.672302
vt 0.901750 0.017663
vt 0.821175 0.672290
vt 0.821109 0.017662
vt 0.778598 0.017654
vt 0.778663 0.672299
vt 0.864991 0.019920
vt 0.865072 0.670059
vt 0.895956 0.019914
vt 0.896040 0.670055
vt 0.815314 0.019903
vt 0.815419 0.670048
vt 0.784458 0.670058
vt 0.784353 0.019900
vt 0.879914 0.016150
vt 0.880592 0.673824
vt 0.799976 0.673818
vt 0.799799 0.016136
vt 0.187133 0.985352
vt 0.014648 0.181320
vt 0.206845 0.017357
vt 0.220321 0.984890
vt 0.401289 0.014648
vt 0.368101 0.015111
vt 0.587570 0.659747
vt 0.587516 0.014662
vt 0.748841 0.659733
vt 0.748787 0.014648
vt 0.381577 0.982644
vt 0.573774 0.818680
vt 0.173658 0.017819
vt 0.023632 0.826342
vt 0.414764 0.982181
vt 0.564791 0.173658
vn 0.000000 0.000000 1.000000
vn 0.000000 0.000000 1.000000
vn 0.000000 0.000000 1.000000
vn 0.000000 0.000000 1.000000
vn 0.000000 1.000000 0.000000
vn 0.000000 1.000000 0.000000
vn 0.000000 1.000000 0.000000
vn 0.000000 1.000000 0.000000
vn 0.000000 0.000000 -1.000000
vn 0.000000 0.000000 -1.000000
vn 0.000000 0.000000 -1.000000
vn 0.000000 0.000000 -1.000000
vn 0.000000 -1.000000 0.000000
vn 0.000000 -1.000000 0.000000
vn 0.000000 -1.000000 0.000000
vn 0.000000 -1.000000 0.000000
vn 1.000000 0.000000 0.000000
vn 1.000000 0.000000 0.000000
vn 1.000000 0.000000 0.000000
vn 1.000000 0.000000 0.000000
vn -1.000000 0.000000 0.000000
vn -1.000000 0.000000 0.000000
vn -1.000000 0.000000 0.000000
vn -1.000000 0.000000 0.000000
vn 0.000000 -1.000000 0.000000
vn 0.000000 -1.000000 0.000000
vn 0.000000 -1.000000 0.000000
vn 0.000000 -1.000000 0.000000
vn 0.000000 0.000000 -1.000000
vn 0.000000 0.000000 -1.000000
vn 0.000000 0.000000 -1.000000
vn 0.000000 0.000000 -1.000000
vn -0.096278 0.995354 0.000000
vn -0.096278 0.995354 0.000000
vn 0.096278 0.995354 0.000000
vn 0.096278 0.995354 0.000000
vn 0.000000 0.000000 1.000000
vn 0.000000 0.000000 1.000000
vn 0.000000 0.000000 1.000000
vn 0.000000 0.000000 1.000000
vn 0.000000 -1.000000 0.000000
vn 0.000000 -1.000000 0.000000
vn 0.000000 -1.000000 0.000000
vn 0.000000 -1.000000 0.000000
vn 0.000000 0.000000 1.000000
vn 0.000000 0.000000 1.000000
vn 0.000000 0.000000 1.000000
vn 0.000000 0.000000 1.000000
vn 0.096278 0.995354 0.000000
vn 0.096278 0.995354 0.000000
vn -0.096278 0.995354 0.000000
vn -0.096278 0.995354 0.000000
vn 0.000000 0.000000 -1.000000
vn 0.000000 0.000000 -1.000000
vn 0.000000 0.000000 -1.000000
vn 0.000000 0.000000 -1.000000
vn -1.000000 0.000000 0.000000
vn -1.000000 0.000000 0.000000
vn -0.978024 0.208494 0.000000
vn -0.978024 0.208494 0.000000
vn 1.000000 0.000000 0.000000
vn 1.000000 0.000000 0.000000
vn 0.978024 0.208494 0.000000
vn 0.978024 0.208494 0.000000
vn 1.000000 0.000000 0.000000
vn 1.000000 0.000000 0.000000
vn 0.978024 0.208493 0.000000
vn 0.978024 0.208493 0.000000
vn -1.000000 0.000000 0.000000
vn -1.000000 0.000000 0.000000
vn -0.978024 0.208492 0.000000
vn -0.978024 0.208492 0.000000
vn -0.923879 0.382685 0.000000
vn -0.923879 0.382685 0.000000
vn -0.382685 0.923879 0.000000
vn -0.382685 0.923879 0.000000
vn 0.382685 0.923879 0.000000
vn 0.382685 0.923879 0.000000
vn 0.923879 0.382685 0.000000
vn 0.923879 0.382685 0.000000
vn 0.382684 0.923879 0.000000
vn 0.382684 0.923879 0.000000
vn 0.923879 0.382684 0.000000
vn 0.923879 0.382684 0.000000
vn -0.382683 0.923879 0.000000
vn -0.382683 0.923879 0.000000
vn -0.923880 0.382683 0.000000
vn -0.923880 0.382683 0.000000
vn 0.000000 0.000000 1.000000
vn 0.000000 0.000000 1.000000
vn 0.000000 0.000000 1.000000
vn 0.000000 0.000000 -1.000000
vn 0.000000 0.000000 -1.000000
vn 0.000000 0.000000 -1.000000
vn 0.000000 0.000000 -1.000000
vn 0.000000 0.000000 -1.000000
vn 0.000000 0.000000 1.000000
vn 0.000000 0.000000 1.000000
vn 0.000000 0.000000 -1.000000
vn 0.000000 0.000000 -1.000000
vn 0.000000 0.000000 -1.000000
vn 0.000000 0.000000 -1.000000
vn 0.000000 0.000000 -1.000000
vn 0.000000 0.000000 -1.000000
vn 0.000000 0.000000 -1.000000
vn 0.000000 0.000000 -1.000000
vn 0.000000 0.000000 -1.000000
vn 0.000000 0.000000 1.000000
vn 0.000000 0.000000 1.000000
vn 0.000000 0.000000 1.000000
vn 0.000000 0.000000 1.000000
vn 0.000000 0.000000 1.000000
vn 0.000000 0.000000 1.000000
vn 0.000000 0.000000 1.000000
vn 0.000000 0.000000 1.000000
vn 0.000000 0.000000 1.000000
s off
g pasted__pCube1 group3
usemtl initialShadingGroup
f 1/1/1 2/2/2 4/55/3 3/48/4
f 3/52/5 4/54/6 6/53/7 5/51/8
f 5/47/9 6/50/10 8/7/11 7/8/12
f 7/8/13 8/7/14 2/2/15 1/1/16
f 10/9/17 9/10/18 11/60/19 12/56/20
f 13/13/21 14/14/22 15/58/23 16/46/24
f 2/2/25 8/7/26 9/10/27 10/9/28
s 1
f 8/7/29 6/50/30 11/49/31 9/10/32
s 2
f 20/17/33 17/18/34 24/19/35 26/20/36
s 3
f 4/55/37 2/2/38 10/9/39 12/59/40
s off
f 7/8/41 1/1/42 14/14/43 13/13/44
s 4
f 1/1/45 3/48/46 15/45/47 14/14/48
s 5
f 29/21/49 32/22/50 36/23/51 38/24/52
s 6
f 5/47/53 7/8/54 13/13/55 16/57/56
s 7
f 6/5/57 4/3/58 19/25/59 21/26/60
s 8
f 12/12/61 11/11/62 28/27/63 25/28/64
s 9
f 3/4/65 5/6/66 34/29/67 30/30/68
s 10
f 16/16/69 15/15/70 40/31/71 37/32/72
s 7
f 19/25/59 18/33/73 22/34/74 21/26/60
s 2
f 18/33/75 17/18/34 20/17/33 22/34/76
f 24/19/35 23/35/77 27/36/78 26/20/36
s 8
f 23/35/79 25/28/64 28/27/63 27/36/80
s 5
f 29/21/49 31/37/81 33/38/82 32/22/50
s 9
f 31/37/83 30/30/68 34/29/67 33/38/84
s 5
f 36/23/51 35/39/85 39/40/86 38/24/52
s 10
f 35/39/87 37/32/72 40/31/71 39/40/88
s 3
f 23/35/89 24/19/90 43/41/91
s 1
f 41/42/92 6/5/30 21/26/93
s 6
f 35/39/94 42/43/95 37/32/96
s 4
f 44/44/97 3/4/46 30/30/98
s 1
f 20/17/99 41/42/92 22/34/100
f 28/27/101 41/42/92 27/36/102
f 22/34/100 41/42/92 21/26/93
f 26/20/103 41/42/92 20/17/99
f 27/36/102 41/42/92 26/20/103
f 11/11/31 41/42/92 28/27/101
f 11/11/31 6/5/30 41/42/92
s 6
f 5/6/53 42/43/95 34/29/104
f 42/43/95 33/38/105 34/29/104
f 35/39/94 36/23/106 42/43/95
f 42/43/95 32/22/107 33/38/105
f 42/43/95 36/23/106 32/22/107
f 37/32/96 42/43/95 16/16/56
f 16/16/56 42/43/95 5/6/53
s 3
f 25/28/108 43/41/91 12/12/40
f 43/41/91 18/33/109 19/25/110
f 23/35/89 43/41/91 25/28/108
f 43/41/91 24/19/90 17/18/111
f 43/41/91 17/18/111 18/33/109
f 4/3/37 43/41/91 19/25/110
f 12/12/40 43/41/91 4/3/37
s 4
f 38/24/112 44/44/97 29/21/113
f 39/40/114 44/44/97 38/24/112
f 31/37/115 44/44/97 30/30/98
f 29/21/113 44/44/97 31/37/115
f 40/31/116 44/44/97 39/40/114
f 15/15/47 44/44/97 40/31/116
f 15/15/47 3/4/46 44/44/97
