# This file uses centimeters as units for non-parametric coordinates.

mtllib roca4_low.mtl
g default
v -1.093275 -0.533564 0.398298
v 1.093278 -0.533564 0.398298
v -1.093276 3.031709 0.419696
v 1.093278 3.031709 0.419696
v -1.093276 3.031709 -1.423296
v 1.093278 3.031709 -1.423296
v -1.093275 -0.541899 -1.436904
v 1.093278 -0.533564 -1.436904
v -1.154882 3.363695 -0.425647
v 1.475925 1.414369 -1.775572
v 0.000001 -0.533571 -1.727811
v -1.475923 1.414369 -1.775572
v 1.475925 -0.533571 -0.436102
v -1.475923 -0.533571 -0.436102
v 0.000001 -0.533571 0.787312
v 1.475925 1.414369 0.698310
v -0.000002 3.501421 0.541567
v -1.475923 1.414369 0.698310
v 1.154878 3.363695 -0.425647
v -0.000002 3.501421 -1.460606
v 0.000001 1.458851 1.051594
v -0.000001 3.870184 -0.365098
v 0.000001 1.458851 -1.922377
v 1.729520 1.458851 -0.522873
v -1.729519 1.458851 -0.522873
vt 0.843707 0.501901
vt 0.647182 0.743913
vt 0.526463 0.308911
vt 0.436595 0.479079
vt 0.115540 0.461180
vt 0.299135 0.540481
vt 0.120973 0.913650
vt 0.398603 0.876268
vt 0.619490 0.494820
vt 0.329973 0.355955
vt 0.185869 0.689784
vt 0.435984 0.655129
vt 0.719187 0.261572
vt 0.754021 0.626445
vt 0.530193 0.599622
vt 0.434448 0.376050
vt 0.683882 0.374924
vt 0.360526 0.476511
vt 0.231257 0.459922
vt 0.480575 0.227485
vt 0.328156 0.687854
vt 0.252479 0.895111
vt 0.765871 0.144003
vt 0.539711 0.818972
vt 0.899388 0.399983
vt 0.170941 0.330477
vt 0.041473 0.680399
vt 0.959607 0.293189
vt 0.551832 0.127083
vn -0.637137 -0.186200 0.747921
vn 0.000000 -0.168533 0.985696
vn 0.000000 0.026629 0.999645
vn -0.666247 0.027505 0.745223
vn 0.637137 -0.186200 0.747921
vn 0.666247 0.027506 0.745223
vn 0.603116 0.407571 0.685665
vn -0.000000 0.549131 0.835736
vn -0.603116 0.407570 0.685666
vn 0.000000 0.999960 0.008945
vn -0.787559 0.616237 -0.001762
vn 0.787557 0.616239 -0.001762
vn 0.576235 0.445521 -0.685175
vn -0.000000 0.607092 -0.794632
vn -0.576235 0.445520 -0.685175
vn 0.000020 0.035140 -0.999382
vn -0.649078 0.031325 -0.760077
vn 0.649069 0.031414 -0.760080
vn 0.623830 -0.192650 -0.757445
vn -0.000341 -0.149725 -0.988728
vn -0.623842 -0.192280 -0.757529
vn 0.983301 -0.181821 0.007728
vn 0.999184 0.039742 -0.007256
vn -0.983345 -0.181613 0.007019
vn -0.999185 0.039713 -0.007251
s 1
g pCube1
usemtl initialShadingGroup
f 1/1/1 15/14/2 21/9/3 18/17/4
f 15/14/2 2/2/5 16/15/6 21/9/3
f 21/9/3 16/15/6 4/4/7 17/16/8
f 18/17/4 21/9/3 17/16/8 3/3/9
f 3/3/9 17/16/8 22/10/10 9/20/11
f 17/16/8 4/4/7 19/18/12 22/10/10
f 22/10/10 19/18/12 6/6/13 20/19/14
f 9/26/11 22/10/10 20/19/14 5/5/15
f 5/5/15 20/19/14 23/11/16 12/27/17
f 20/19/14 6/6/13 10/21/18 23/11/16
f 23/11/16 10/21/18 8/8/19 11/22/20
f 12/27/17 23/11/16 11/22/20 7/7/21
f 2/2/5 13/24/22 24/12/23 16/15/6
f 13/24/22 8/8/19 10/21/18 24/12/23
f 24/12/23 10/21/18 6/6/13 19/18/12
f 16/15/6 24/12/23 19/18/12 4/4/7
f 7/28/21 14/25/24 25/13/25 12/23/17
f 14/25/24 1/1/1 18/17/4 25/13/25
f 25/13/25 18/17/4 3/3/9 9/20/11
f 12/23/17 25/13/25 9/20/11 5/29/15
