# This file uses centimeters as units for non-parametric coordinates.

mtllib rock_lo1.mtl
g default
v -15.000000 -0.030638 15.999998
v 15.000000 -0.030638 7.459057
v -7.963181 42.300341 5.172497
v -8.740036 41.879779 -7.459057
v 4.252562 41.041534 -6.340847
v 15.530837 -0.030648 -11.361145
v -8.740036 21.000000 7.459057
v 8.740036 21.000000 7.459057
v 8.740036 21.000000 -7.459057
v -11.000000 10.560113 8.999999
v 8.740036 10.560113 7.459057
v 11.000000 10.560113 -9.999999
v -3.234261 28.497048 -10.422961
v -5.244022 41.879779 -7.459057
v -5.244022 41.879779 7.459057
v -5.244022 21.000000 7.459057
v -5.244022 10.560113 7.459057
v 0.349601 21.000000 -7.459057
v 0.349601 10.560113 -7.459057
v 4.999999 -0.030653 -11.999997
v 0.349601 21.000000 7.459057
v 0.349601 41.879779 7.459057
v 0.349601 41.879779 -7.459057
v -8.740036 33.527867 -7.459057
v -5.244022 33.527867 -7.459057
v 0.349601 33.527867 -7.459057
v 6.240212 33.747694 -6.094574
v 8.740036 33.527867 7.459057
v 0.349601 33.527867 7.459057
v -5.244022 33.527867 7.459057
v -9.534463 33.217108 5.938621
v -3.097280 16.450270 15.137924
v -3.975310 10.560113 20.218917
v 0.265021 10.560113 20.218917
v 0.265021 16.789452 16.513371
v -3.975310 -0.030638 20.218917
v 0.265021 -0.030638 20.218917
v -11.000000 -0.030638 20.218916
v -7.242826 8.998099 14.437638
v 6.625514 -0.030638 20.218917
v 6.625514 10.560113 20.218917
v 6.659546 17.084079 15.019679
v -4.819382 46.559023 -4.439035
v -4.819382 46.559023 4.439035
v -1.490504 46.559023 4.439035
v -1.490504 46.559023 -4.439035
v -7.017794 47.035718 3.114482
v -6.899931 46.559023 -4.439035
v -8.740036 41.879779 -1.491812
v -6.899931 46.559023 -0.887807
v -4.819382 46.559023 -0.887807
v -1.490504 46.559023 -0.887807
v 0.349601 41.879779 -1.491812
v 7.383583 41.909095 -2.281992
v 8.740036 33.527867 -1.491812
v 12.929117 21.000000 -1.491812
v 15.949637 10.560113 -1.491812
v 20.999997 -0.030638 -1.491812
v -12.089256 24.568931 1.697894
v -8.740036 33.527867 -1.491812
v -15.350535 21.000000 -11.840640
v -16.326496 21.000000 -5.603367
v -11.584979 28.175003 -2.573456
v -10.794595 28.062467 -10.033095
v -10.378255 10.560113 -13.490898
v -10.378255 21.000000 -13.490898
v -2.178394 20.702069 -12.457731
v -0.861050 10.560113 -13.490898
v -16.326496 10.560113 -13.490898
v -16.326496 10.560113 -5.603367
v -10.378255 -0.030638 -13.490898
v -0.861050 -0.030638 -13.490898
v -21.397286 -0.030638 -18.032953
v -24.538270 -0.030638 -6.511780
v -7.264282 28.601524 -11.444777
v -21.397286 -0.030638 10.769996
v -16.326496 10.560113 6.227939
v -13.258581 21.423890 5.974504
v 4.544818 21.000000 -7.459057
v 5.674800 10.560113 -8.729528
v 11.000000 -0.030653 -13.499999
v 3.445267 -0.030638 20.218917
v 3.445267 10.560113 20.218917
v 3.445267 16.789452 16.513371
v 4.544818 21.000000 7.459057
v 4.544818 33.527867 7.459057
v 3.350845 41.211343 6.625145
v 3.866592 41.894439 -1.886902
v 2.301082 41.460655 -6.899953
v 3.294906 33.637779 -6.776816
v -10.414645 22.784464 4.578475
v -9.137251 33.372487 2.223404
v -8.351608 42.090060 1.840343
v -6.958863 46.797371 1.113338
v -4.819382 46.559023 1.775614
v -1.490504 46.559023 1.775614
v 0.349601 41.879779 2.983623
v 3.608719 41.552892 2.369121
v 6.867836 41.226004 1.754621
v 8.740036 33.527867 2.983623
v 10.834577 21.000000 2.983623
v 12.344836 10.560113 2.983623
v 18.000000 -0.030638 2.983623
v -24.538270 -0.030638 2.129108
v -16.326496 10.560113 0.312286
v -14.792539 21.211944 0.185569
v 5.133135 35.100967 6.117942
v 4.407257 39.772147 5.610964
v 7.683624 35.100967 6.117942
v 6.231867 39.365770 5.103986
v 4.564032 39.979792 3.023508
v 6.545416 39.781059 2.649921
v 7.683624 35.100967 3.397095
v -4.261761 17.129909 9.881758
v -6.274238 9.809620 12.075411
v -9.405354 9.526285 11.011072
v -13.435497 -0.030636 17.719537
v 12.590816 -0.030638 13.629350
v 8.444103 10.560113 13.455060
v 7.568495 17.644262 10.373532
v 4.104998 19.989690 12.563001
v 0.315769 19.989689 12.563003
vt 0.554140 0.547639
vt 0.562888 0.612400
vt 0.479253 0.623516
vt 0.470102 0.573282
vt 0.644470 0.495359
vt 0.671837 0.590495
vt 0.569010 0.660903
vt 0.480980 0.671679
vt 0.414516 0.658739
vt 0.402754 0.597454
vt 0.575378 0.709475
vt 0.482685 0.721027
vt 0.448579 0.690890
vt 0.491890 0.868302
vt 0.542611 0.868296
vt 0.681065 0.661482
vt 0.675831 0.737451
vt 0.492004 0.797445
vt 0.542604 0.797308
vt 0.435569 0.961166
vt 0.459818 0.870543
vt 0.463551 0.795339
vt 0.486360 0.754916
vt 0.516638 0.754633
vt 0.406192 0.974466
vt 0.427716 0.871438
vt 0.434987 0.793031
vt 0.469241 0.753348
vt 0.390530 0.860228
vt 0.404643 0.790544
vt 0.452143 0.751750
vt 0.144008 0.312232
vt 0.133394 0.424102
vt 0.050960 0.415406
vt 0.042548 0.273496
vt 0.182515 0.317114
vt 0.195976 0.417553
vt 0.163597 0.613408
vt 0.054878 0.612677
vt 0.196576 0.330607
vt 0.204641 0.392603
vt 0.232805 0.590557
vt 0.191456 0.775580
vt 0.042531 0.774912
vt 0.239691 0.389425
vt 0.226439 0.333999
vt 0.248651 0.409017
vt 0.300772 0.566901
vt 0.272903 0.742229
vt 0.221250 0.950195
vt 0.054334 0.946089
vt 0.777687 0.043032
vt 0.293700 0.919141
vt 0.631946 0.026453
vt 0.869794 0.105576
vt 0.768994 0.117427
vt 0.637697 0.105220
vt 0.840016 0.154861
vt 0.766968 0.190508
vt 0.656021 0.206083
vt 0.815155 0.374366
vt 0.864669 0.361640
vt 0.873012 0.391383
vt 0.823233 0.399864
vt 0.926483 0.361649
vt 0.926097 0.391581
vt 0.784259 0.404279
vt 0.755530 0.386997
vt 0.254342 0.290044
vt 0.292553 0.386275
vt 0.267380 0.371854
vt 0.242575 0.314224
vt 0.199799 0.281241
vt 0.209203 0.306766
vt 0.994226 0.233863
vt 0.741973 0.682363
vt 0.741173 0.751400
vt 0.942580 0.260983
vt 0.799776 0.295325
vt 0.877499 0.252243
vt 0.144630 0.084091
vt 0.206832 0.099206
vt 0.189246 0.150546
vt 0.140414 0.134745
vt 0.218957 0.060937
vt 0.147867 0.046408
vt 0.250571 0.119381
vt 0.225585 0.164870
vt 0.155184 0.218883
vt 0.054505 0.182840
vt 0.044892 0.080746
vt 0.260103 0.077141
vt 0.042741 0.015477
vt 0.286835 0.145299
vt 0.256740 0.179566
vt 0.219423 0.238542
vt 0.138574 0.268877
vt 0.047299 0.225133
vt 0.297100 0.101557
vt 0.351457 0.209689
vt 0.281653 0.257015
vt 0.374701 0.152074
vt 0.784972 0.250851
vt 0.855605 0.220846
vt 0.775243 0.219641
vt 0.842891 0.191066
vt 0.903518 0.199614
vt 0.887138 0.162182
vt 0.940913 0.130329
vt 0.959156 0.179877
vt 0.794610 0.760134
vt 0.727164 0.790139
vt 0.839553 0.733434
vt 0.786910 0.977484
vt 0.728013 0.984797
vt 0.609308 0.981927
vt 0.826360 0.971874
vt 0.945966 0.749735
vt 0.969949 0.967516
vt 0.755279 0.431372
vt 0.755513 0.414181
vt 0.785471 0.424229
vt 0.784710 0.442748
vt 0.822699 0.439186
vt 0.821631 0.464518
vt 0.343388 0.360047
vt 0.415766 0.323073
vt 0.413521 0.522842
vt 0.534996 0.470184
vt 0.478013 0.299846
vt 0.357261 0.545856
vt 0.947453 0.555916
vt 0.873438 0.439051
vt 0.873716 0.468592
vt 0.926198 0.438901
vt 0.928787 0.497992
vt 0.682513 0.324462
vt 0.670848 0.277516
vt 0.662846 0.242005
vt 0.571980 0.131256
vt 0.592986 0.246436
vt 0.546924 0.255348
vt 0.510589 0.141856
vt 0.620993 0.382579
vt 0.588479 0.390708
vt 0.500904 0.264615
vt 0.449862 0.152357
vt 0.487965 0.018614
vt 0.419246 0.030499
vt 0.617798 0.472899
vt 0.640677 0.472576
vt 0.555980 0.399066
vt 0.366839 0.051514
vt 0.594886 0.473229
vt 0.681054 0.369340
vt 0.700872 0.459260
vt 0.738492 0.450945
vt 0.718644 0.361011
vt 0.867104 0.539837
vt 0.488280 0.490441
vt 0.887035 0.341788
vt 0.613628 0.802968
vt 0.941989 0.348669
vt 0.811594 0.516535
vt 0.351913 0.710449
vt 0.929802 0.072347
vt 0.366874 0.889870
vt 0.453835 0.722098
vt 0.459092 0.753305
vt 0.465905 0.950201
vt 0.365999 0.675436
vt 0.358335 0.626423
vn 0.017584 0.008833 0.999806
vn -0.133017 0.027894 0.990721
vn -0.008880 0.032103 0.999445
vn 0.000000 0.000000 1.000000
vn 0.000000 1.000000 0.000000
vn 0.009616 0.999926 -0.007511
vn 0.000000 1.000000 0.000000
vn 0.000000 1.000000 0.000000
vn 0.412025 0.226454 -0.882583
vn 0.167478 0.044001 -0.984893
vn 0.087361 0.037380 -0.995475
vn 0.942221 0.236728 -0.237025
vn 0.947408 0.268030 -0.174864
vn 0.817583 0.258553 -0.514499
vn 0.824109 0.206368 -0.527500
vn -0.966275 0.242635 -0.086266
vn -0.966857 0.253937 -0.026538
vn -0.814745 0.569339 -0.109747
vn -0.814745 0.569339 -0.109747
vn -0.169458 0.586492 0.792030
vn -0.273634 0.284347 0.918842
vn -0.039355 0.230616 0.972249
vn -0.103341 0.559521 0.822348
vn 0.914396 0.384408 -0.126931
vn 0.807932 0.343348 -0.478913
vn 0.061239 0.068596 -0.995763
vn -0.096243 0.146373 -0.984537
vn 0.059033 0.053816 -0.996804
vn 0.025107 0.022888 -0.999423
vn -0.887340 0.444886 -0.121264
vn -0.916509 0.398336 -0.036599
vn -0.303555 0.201343 0.931298
vn 0.000000 0.000000 1.000000
vn 0.888280 0.438861 -0.135496
vn 0.800562 0.391290 -0.453864
vn 0.124862 0.070128 -0.989693
vn 0.000000 0.000000 -1.000000
vn -0.823838 0.550922 -0.133325
vn -0.811523 0.579408 -0.075608
vn 0.146354 0.129626 -0.980703
vn 0.255905 0.143728 -0.955957
vn -0.199694 0.168974 -0.965179
vn -0.332992 0.398725 -0.854479
vn -0.332992 0.398725 -0.854479
vn 0.025996 0.999456 -0.020307
vn 0.000000 1.000000 0.000000
vn -0.000699 0.055381 0.998465
vn -0.310554 0.065743 0.948280
vn 0.164041 0.054933 0.984923
vn 0.164041 0.054933 0.984923
vn -0.499792 0.331505 0.800195
vn -0.499792 0.331505 0.800195
vn -0.170601 0.151256 -0.973662
vn -0.024750 0.083896 -0.996167
vn -0.150289 0.221639 -0.963478
vn -0.226637 0.300533 -0.926453
vn -0.016314 0.312094 -0.949911
vn 0.000000 0.000000 1.000000
vn 0.037084 0.234862 0.971321
vn 0.095453 0.544449 0.833345
vn 0.000000 0.000000 1.000000
vn 0.021366 0.010732 0.999714
vn 0.075162 0.995914 -0.050060
vn 0.062793 0.998026 -0.001351
vn 0.067978 0.997629 -0.010718
vn 0.076064 0.993346 -0.086470
vn 0.140221 0.047150 -0.988997
vn 0.000000 0.000000 -1.000000
vn 0.000000 0.000000 -1.000000
vn 0.000000 0.068137 -0.997676
vn 0.000000 0.000000 -1.000000
vn 0.072299 0.002275 -0.997380
vn 0.246537 0.014022 -0.969032
vn 0.926099 0.172400 -0.335588
vn 0.825349 0.139910 -0.547015
vn 0.044503 0.022354 0.998759
vn 0.120440 0.060498 0.990875
vn -0.212962 0.036469 0.976380
vn -0.474702 0.081290 0.876385
vn -1.000000 0.000000 0.000000
vn -0.996569 0.067714 0.047595
vn -0.999847 0.017460 -0.000609
vn -1.000000 0.000000 0.000000
vn -0.966619 0.212296 0.143449
vn -0.934784 0.290541 0.204362
vn -0.914591 0.329334 0.234653
vn -0.914591 0.329334 0.234653
vn -0.450458 0.772861 0.446961
vn -0.405521 0.770636 0.491602
vn -0.499270 0.770192 0.396905
vn -0.240505 0.950050 0.198902
vn -0.088862 0.966010 0.242752
vn -0.410699 0.900793 0.141059
vn -0.410699 0.900793 0.141059
vn -0.549475 0.610420 0.570495
vn -0.576592 0.607291 0.546570
vn -0.603130 0.603332 0.521752
vn -0.603130 0.603332 0.521752
vn 0.884946 0.327068 0.331507
vn 0.881700 0.295283 0.367984
vn 0.851252 0.170733 0.496206
vn 0.851252 0.170733 0.496206
vn 0.957725 0.176285 0.227344
vn 0.972909 0.110782 0.202916
vn 0.950042 0.203017 0.237073
vn 0.950042 0.203017 0.237073
vn 0.045589 0.772476 0.633405
vn 0.181132 0.890267 0.417869
vn 0.000000 0.913186 0.407542
vn 0.000000 0.777022 0.629474
vn 0.000000 0.542273 0.840202
vn 0.000000 0.542273 0.840202
vn 0.000000 0.542273 0.840202
vn 0.000000 0.542273 0.840202
vn 0.930628 0.365968 0.000000
vn 0.930628 0.365968 0.000000
vn 0.930628 0.365968 0.000000
vn 0.930628 0.365968 0.000000
vn 0.000000 0.542273 -0.840202
vn 0.000000 0.542273 -0.840202
vn 0.000000 0.542274 -0.840202
vn 0.000000 0.542273 -0.840202
vn -0.464305 0.471843 0.749524
vn -0.464305 0.471843 0.749524
vn -0.464305 0.471843 0.749524
vn -0.464305 0.471843 0.749524
vn 0.000000 0.542273 -0.840202
vn 0.000000 0.542273 -0.840202
vn 0.000000 0.542273 -0.840202
vn 0.000000 0.542273 -0.840202
vn -0.930628 0.365968 0.000000
vn -0.934763 0.355173 0.008409
vn -0.937195 0.348542 0.013546
vn -0.930628 0.365968 0.000000
vn -0.958699 0.282200 0.035491
vn -0.954552 0.296091 0.034066
vn 0.113298 0.992338 -0.049275
vn 0.050676 0.998556 -0.017821
vn 0.000000 1.000000 0.000000
vn 0.930628 0.365968 0.000000
vn 0.930628 0.365968 0.000000
vn 0.115521 0.992407 0.042232
vn 0.088363 0.993846 0.066798
vn 0.975749 0.205420 0.075606
vn 0.965561 0.169289 0.197570
vn 0.913237 0.144670 0.380878
vn 0.791847 0.276511 0.544536
vn 0.740868 0.390196 0.546683
vn -0.803874 0.587605 0.092233
vn -0.899123 0.426677 0.097595
vn -0.981351 0.145187 0.125983
vn -0.919118 0.292439 0.264011
vn -0.965953 0.128133 0.224759
vn -0.979356 0.156748 0.127638
vn -0.996154 0.087599 -0.001924
vn -0.860417 0.434908 0.265588
vn -0.859574 0.435967 0.266582
vn -0.851373 0.446045 0.276058
vn -0.902130 0.427724 -0.056689
vn -0.902130 0.427724 -0.056689
vn -0.902130 0.427724 -0.056689
vn -0.902130 0.427724 -0.056689
vn 0.483652 0.281820 -0.828649
vn 0.861868 0.234166 -0.449832
vn 0.425590 0.282093 -0.859824
vn 0.943669 0.076559 -0.321912
vn 0.943669 0.076559 -0.321912
vn 0.943669 0.076559 -0.321912
vn 0.943669 0.076559 -0.321912
vn 0.696566 0.293309 -0.654802
vn 0.696566 0.293309 -0.654802
vn 0.696566 0.293309 -0.654802
vn 0.696566 0.293309 -0.654802
vn -0.203110 0.578379 -0.790079
vn -0.203110 0.578379 -0.790079
vn -0.203110 0.578379 -0.790079
vn -0.203110 0.578379 -0.790079
vn 0.239418 0.339790 -0.909518
vn 0.239418 0.339790 -0.909518
vn 0.239418 0.339790 -0.909518
vn 0.239418 0.339790 -0.909517
vn -0.463688 0.568754 0.679347
vn -0.463688 0.568754 0.679347
vn -0.463688 0.568754 0.679347
vn -0.463688 0.568754 0.679347
vn -0.384632 0.172572 0.906795
vn -0.384632 0.172572 0.906795
vn -0.384632 0.172572 0.906795
vn -0.384632 0.172572 0.906795
vn -0.390915 0.789266 0.473545
vn -0.741432 0.621087 0.254026
vn -0.804857 0.561306 0.192721
vn -0.804857 0.561306 0.192721
vn 0.130014 0.266880 -0.954920
vn -0.875430 0.415308 0.247269
vn -0.110511 0.814856 0.569032
vn -0.110511 0.814856 0.569032
vn -0.053866 0.136351 -0.989195
vn 0.022979 0.270726 -0.962382
vn 0.083366 0.312693 -0.946189
vn 0.000000 0.000000 1.000000
vn 0.073394 0.254198 0.964363
vn 0.162998 0.564541 0.809151
vn 0.424078 0.779547 0.460939
vn 0.428490 0.772695 0.468336
vn 0.000000 0.000000 1.000000
vn 0.000000 0.000000 1.000000
vn 0.130907 0.197266 0.971571
vn 0.130907 0.197266 0.971571
vn 0.130907 0.197266 0.971571
vn 0.130907 0.197266 0.971571
vn 0.071220 0.997452 -0.004141
vn 0.064718 0.989620 0.128315
vn 0.077941 0.980392 -0.180985
vn 0.121252 0.081503 -0.989270
vn 0.247140 0.025072 -0.968656
vn -0.977057 0.055629 0.205586
vn -0.988088 0.084289 0.128753
vn -0.991364 0.131116 -0.002257
vn -0.967241 0.250901 0.038652
vn -0.967241 0.250901 0.038652
vn 0.183752 0.981807 -0.047846
vn 0.048459 0.998745 -0.012618
vn 0.000000 1.000000 0.000000
vn 0.930628 0.365968 0.000000
vn 0.930628 0.365968 0.000000
vn 0.166666 0.985055 0.043455
vn 0.166666 0.985055 0.043455
vn 0.186494 0.972773 0.137595
vn 0.186494 0.972773 0.137595
vn 0.186494 0.972773 0.137595
vn 0.186494 0.972773 0.137595
vn 0.952993 0.291917 0.081169
vn 0.952993 0.291917 0.081169
vn 0.952993 0.291917 0.081169
vn 0.952993 0.291917 0.081169
vn 0.920535 0.072239 0.383922
vn 0.970487 0.081128 0.227098
vn 0.806883 0.221785 0.547496
vn 0.733054 0.412361 0.540916
vn -0.809714 0.560211 0.174719
vn -0.874763 0.456973 0.161135
vn -0.969970 0.209641 0.123324
vn 0.800539 0.186222 0.569613
vn 0.800539 0.186222 0.569613
vn 0.800539 0.186222 0.569613
vn 0.800539 0.186222 0.569613
vn 0.000000 0.648766 0.760988
vn 0.000000 0.648766 0.760988
vn 0.000000 0.648766 0.760988
vn 0.000000 0.648765 0.760988
vn 0.208792 0.481004 0.851493
vn 0.208792 0.481004 0.851493
vn 0.208792 0.481004 0.851493
vn 0.208792 0.481004 0.851493
vn 0.833062 0.545097 0.094220
vn 0.833062 0.545097 0.094220
vn 0.833062 0.545097 0.094220
vn 0.833062 0.545097 0.094220
vn 0.830175 0.557503 0.000000
vn 0.830175 0.557503 0.000000
vn 0.830175 0.557503 0.000000
vn 0.830175 0.557503 0.000000
vn 0.675429 0.273592 0.684795
vn 0.675429 0.273592 0.684795
vn 0.675429 0.273592 0.684795
vn 0.675429 0.273592 0.684795
vn -0.989959 0.121167 0.072793
vn -0.989959 0.121167 0.072793
vn -0.016758 0.965120 0.261269
vn -0.016758 0.965120 0.261269
vn -0.510665 0.613429 0.602434
vn -0.510665 0.613429 0.602434
vn 0.879557 0.433744 0.195565
vn 0.879557 0.433744 0.195565
vn 0.977874 0.082654 0.192175
vn 0.977874 0.082654 0.192175
vn 0.381096 0.777655 0.500019
vn 0.195944 0.912692 0.358607
vn -0.000000 0.980966 0.194179
vn -0.356667 0.762712 0.539499
vn -0.356667 0.762712 0.539499
vn -0.317681 0.738762 0.594398
s 1
g pCube1
usemtl initialShadingGroup
f 29/126/1 30/127/2 16/160/3 21/128/4
s 2
f 43/81/5 51/82/6 52/83/7 46/84/8
s 3
f 13/67/9 26/68/10 18/61/11
s 4
f 55/33/12 56/38/13 9/39/14 27/34/15
s 5
f 61/4/16 62/3/17 63/9/18 64/10/19
s 6
f 32/80/20 33/79/21 34/103/22 35/104/23
s 4
f 56/38/13 57/43/24 12/44/25 9/39/14
s 7
f 65/133/26 66/124/27 67/64/28 68/63/29
s 5
f 69/1/30 70/2/31 62/3/17 61/4/16
s 6
f 33/79/21 36/137/32 37/138/33 34/103/22
s 4
f 57/43/24 58/50/34 6/51/35 12/44/25
s 7
f 71/135/36 65/133/26 68/63/29 72/66/37
s 5
f 73/5/38 74/6/39 70/2/31 69/1/30
s 7
f 69/134/40 65/133/26 71/135/36 73/136/41
f 61/125/42 66/124/27 65/133/26 69/134/40
f 64/123/43 75/122/44 66/124/27 61/125/42
s 2
f 50/85/45 51/82/6 43/81/5 48/86/46
s 1
f 7/129/47 16/160/3 30/127/2 31/130/48
f 10/113/49 17/76/50 16/164/3 7/159/47
s 6
f 38/115/51 36/116/32 33/162/21 39/112/52
s 3
f 19/140/53 18/141/11 79/142/54 80/143/55
f 20/148/56 19/140/53 80/143/55 81/149/57
s 6
f 34/103/22 37/138/33 82/139/58 83/105/59
f 35/104/23 34/103/22 83/105/59 84/106/60
s 1
f 85/131/61 86/70/62 29/126/1 21/128/4
s 8
f 23/90/63 53/89/64 88/97/65 89/98/66
s 3
f 18/141/11 26/144/10 90/145/67 79/142/54
f 4/157/68 14/156/69 25/155/70 24/158/71
f 26/144/10 25/155/70 14/156/69 23/151/72
f 89/150/73 90/145/67 26/144/10 23/151/72
s 4
f 54/32/74 55/33/12 27/34/15 5/35/75
s 1
f 22/101/76 29/126/1 86/70/62 87/69/77
f 15/100/78 30/127/2 29/126/1 22/101/76
f 31/26/48 30/29/2 15/30/78 3/27/79
s 10
f 24/15/80 60/14/81 49/18/82 4/19/83
s 11
f 114/78/84 115/161/85 33/79/86 32/80/87
s 12
f 122/107/88 114/78/89 32/80/90
s 13
f 115/77/91 116/111/92 39/112/93 33/162/94
s 14
f 116/111/95 117/114/96 38/115/97 39/112/98
s 15
f 118/57/99 119/56/100 41/59/101 40/60/102
s 16
f 119/56/103 120/55/104 42/58/105 41/59/106
s 17
f 84/106/107 121/108/108 122/107/109 35/104/110
s off
f 15/100/111 22/101/112 45/95/113 44/94/114
s 18
f 52/83/115 53/89/116 23/90/117 46/84/118
s off
f 23/90/119 14/91/120 43/81/121 46/84/122
f 3/102/123 15/100/124 44/94/125 47/99/126
f 14/91/127 4/93/128 48/86/129 43/81/130
s 19
f 4/19/131 49/18/132 50/23/133 48/24/134
f 50/23/133 49/18/132 93/22/135 94/28/136
s 2
f 94/92/137 95/87/138 51/82/6 50/85/45
f 52/83/7 51/82/6 95/87/138 96/88/139
s 18
f 96/88/140 97/96/141 53/89/116 52/83/115
s 8
f 97/96/142 98/73/143 88/97/65 53/89/64
s 4
f 99/36/144 100/37/145 55/33/12 54/32/74
f 100/37/145 101/42/146 56/38/13 55/33/12
f 101/42/146 102/49/147 57/43/24 56/38/13
f 102/49/147 103/53/148 58/50/34 57/43/24
s 5
f 70/2/31 74/6/39 104/16/149 105/7/150
f 62/3/17 70/2/31 105/7/150 106/8/151
s 10
f 60/14/81 59/170/152 91/20/153 92/21/154
f 49/18/82 60/14/81 92/21/154 93/22/155
s 21
f 59/13/156 63/9/157 62/3/158
s off
f 60/171/159 24/172/160 64/10/161 63/9/162
s 22
f 13/67/163 18/61/164 67/64/165
s off
f 18/61/166 19/62/167 68/63/168 67/64/169
f 19/62/170 20/65/171 72/66/172 68/63/173
f 24/120/174 25/121/175 75/122/176 64/123/177
f 25/121/178 13/67/179 66/124/180 75/122/181
f 1/117/182 10/113/183 77/118/184 76/119/185
f 10/113/186 7/159/187 78/132/188 77/118/189
s 23
f 78/12/190 59/13/191 62/3/192 106/8/193
s 22
f 13/67/163 67/64/165 66/124/194
s 3
f 13/67/9 25/121/70 26/68/10
s 21
f 59/13/156 60/171/195 63/9/157
s 23
f 7/169/196 91/168/197 59/13/191 78/12/190
s 3
f 80/143/55 79/142/54 9/146/198 12/147/199
f 81/149/57 80/143/55 12/147/199 6/153/200
s 6
f 83/105/59 82/139/58 40/60/201 41/59/202
f 84/106/60 83/105/59 41/59/202 42/58/203
s 17
f 120/55/204 121/108/108 42/58/205
s 1
f 28/47/206 86/70/62 85/131/61 8/48/207
s off
f 108/72/208 107/71/209 109/45/210 110/46/211
s 8
f 54/32/212 88/97/65 98/73/143 99/36/213
f 89/98/66 88/97/65 54/32/212 5/35/214
s 3
f 27/152/215 90/145/67 89/150/73 5/154/216
f 79/142/54 90/145/67 27/152/215 9/146/198
s 10
f 92/21/154 91/20/153 7/25/217 31/26/218
f 93/22/155 92/21/154 31/26/218 3/27/219
s 19
f 94/28/136 93/22/135 3/27/220 47/31/221
s 2
f 47/99/222 44/94/223 95/87/138 94/92/137
f 96/88/139 95/87/138 44/94/223 45/95/224
s 18
f 22/101/225 97/96/141 96/88/140 45/95/226
s 8
f 87/69/227 98/73/143 97/96/142 22/101/228
s off
f 112/40/229 111/74/230 108/72/231 110/46/232
f 109/45/233 113/41/234 112/40/235 110/46/236
s 4
f 8/48/237 101/42/146 100/37/145 28/47/238
f 11/165/239 102/49/147 101/42/146 8/48/237
f 2/167/240 103/53/148 102/49/147 11/165/239
s 5
f 105/7/150 104/16/149 76/17/241 77/11/242
f 106/8/151 105/7/150 77/11/242 78/12/243
s off
f 87/69/244 86/70/245 107/71/246 108/72/247
f 86/70/248 28/47/249 109/45/250 107/71/251
f 99/36/252 98/73/253 111/74/254 112/40/255
f 98/73/256 87/69/257 108/72/258 111/74/259
f 28/47/260 100/37/261 113/41/262 109/45/263
f 100/37/264 99/36/265 112/40/266 113/41/267
s 11
f 16/75/268 17/163/269 115/161/85 114/78/84
s 13
f 17/76/270 10/113/271 116/111/92 115/77/91
s 14
f 10/113/272 1/117/273 117/114/96 116/111/95
s 15
f 2/54/274 11/52/275 119/56/100 118/57/99
s 16
f 11/52/276 8/166/277 120/55/104 119/56/103
s 17
f 8/166/278 85/109/279 121/108/108 120/55/204
f 122/107/109 121/108/108 85/109/279 21/110/280
s 12
f 21/110/281 16/75/282 114/78/89 122/107/88
f 122/107/88 32/80/90 35/104/283
s 17
f 42/58/205 121/108/108 84/106/107
