# This file uses centimeters as units for non-parametric coordinates.

mtllib sejetapuerta_verja.mtl
g default
v 5.407054 -0.439750 -1.252781
v 3.934321 -0.439750 -0.774261
v 3.934321 -0.439750 0.774261
v 5.407054 -0.439750 1.252781
v 6.317252 -0.439750 0.000000
v 5.407054 16.550035 -1.252781
v 3.934321 16.550035 -0.774261
v 3.934321 16.550035 0.774261
v 5.407054 16.550035 1.252781
v 6.317252 16.550035 0.000000
v 5.407053 17.214769 -1.252781
v 3.934321 17.214769 -0.774261
v 5.000000 19.578907 -0.000000
v 3.934321 17.214769 0.774261
v 5.407053 17.214769 1.252781
v 6.317252 17.214769 -0.000000
vt 0.600834 0.158440
vt 0.789109 0.158428
vt 0.977384 0.158415
vt 0.224284 0.158465
vt 0.412559 0.158453
vt 0.600855 0.478753
vt 0.789130 0.478740
vt 0.036030 0.478790
vt 0.224305 0.478778
vt 0.412580 0.478765
vt 0.437776 0.736973
vt 0.418746 0.542750
vt 0.789131 0.491273
vt 0.036031 0.491323
vt 0.224306 0.491310
vt 0.412581 0.491298
vt 0.977406 0.491260
vt 0.977405 0.478728
vt 0.036009 0.158478
vt 0.247178 0.695053
vt 0.600856 0.491285
vt 0.339010 0.905288
vt 0.567333 0.882917
vt 0.616612 0.658856
vn -0.309017 0.000000 -0.951057
vn -0.309017 0.000000 -0.951057
vn -0.309017 0.000000 -0.951057
vn -0.309017 0.000000 -0.951057
vn -1.000000 0.000000 0.000000
vn -1.000000 0.000000 0.000000
vn -1.000000 0.000000 0.000000
vn -1.000000 0.000000 0.000000
vn -0.309017 0.000000 0.951057
vn -0.309017 0.000000 0.951057
vn -0.309017 0.000000 0.951057
vn -0.309017 0.000000 0.951057
vn 0.809017 0.000000 0.587785
vn 0.809017 0.000000 0.587785
vn 0.809017 0.000000 0.587785
vn 0.809017 0.000000 0.587785
vn 0.809017 0.000000 -0.587785
vn 0.809017 0.000000 -0.587785
vn 0.809017 0.000000 -0.587785
vn 0.809017 0.000000 -0.587785
vn 0.269943 0.486728 -0.830799
vn -0.706720 0.486728 -0.513462
vn -0.000000 1.000000 0.000000
vn -0.706720 0.486728 0.513462
vn 0.269943 0.486728 0.830799
vn 0.873554 0.486728 0.000000
vn -0.309017 0.000000 -0.951057
vn -0.309017 0.000000 -0.951057
vn -0.309017 0.000000 -0.951057
vn -0.309017 0.000000 -0.951057
vn -1.000000 -0.000000 0.000000
vn -1.000000 -0.000000 0.000000
vn -1.000000 -0.000000 0.000000
vn -1.000000 -0.000000 0.000000
vn -0.309016 0.000000 0.951057
vn -0.309016 0.000000 0.951057
vn -0.309016 0.000000 0.951057
vn -0.309016 0.000000 0.951057
vn 0.809017 0.000000 0.587785
vn 0.809017 0.000000 0.587785
vn 0.809017 0.000000 0.587785
vn 0.809017 0.000000 0.587785
vn 0.809017 0.000000 -0.587785
vn 0.809017 0.000000 -0.587785
vn 0.809017 0.000000 -0.587785
vn 0.809017 0.000000 -0.587785
s off
g pCylinder2
usemtl initialShadingGroup
f 1/1/1 2/2/2 7/7/3 6/6/4
f 2/2/5 3/3/6 8/18/7 7/7/8
f 3/19/9 4/4/10 9/9/11 8/8/12
f 4/4/13 5/5/14 10/10/15 9/9/16
f 5/5/17 1/1/18 6/6/19 10/10/20
s 1
f 11/12/21 12/24/22 13/11/23
f 12/24/22 14/23/24 13/11/23
f 14/23/24 15/22/25 13/11/23
f 15/22/25 16/20/26 13/11/23
f 16/20/26 11/12/21 13/11/23
s off
f 6/6/27 7/7/28 12/13/29 11/21/30
f 7/7/31 8/18/32 14/17/33 12/13/34
f 8/8/35 9/9/36 15/15/37 14/14/38
f 9/9/39 10/10/40 16/16/41 15/15/42
f 10/10/43 6/6/44 11/21/45 16/16/46
