# This file uses centimeters as units for non-parametric coordinates.

mtllib barrote_verja.mtl
g default
v 5.407054 -0.439750 -1.252781
v 3.934321 -0.439750 -0.774261
v 3.934321 -0.439750 0.774261
v 5.407054 -0.439750 1.252781
v 6.317252 -0.439750 0.000000
v 5.407054 16.550035 -1.252781
v 3.934321 16.550035 -0.774261
v 3.934321 16.550035 0.774261
v 5.407054 16.550035 1.252781
v 6.317252 16.550035 0.000000
v 5.407053 17.214769 -1.252781
v 3.934321 17.214769 -0.774261
v 5.000000 19.578907 -0.000000
v 3.934321 17.214769 0.774261
v 5.407053 17.214769 1.252781
v 6.317252 17.214769 -0.000000
vt 0.334143 0.226262
vt 0.569801 0.094801
vt 0.821160 0.033929
vt 0.087086 0.682184
vt 0.165903 0.435034
vt 0.581816 0.506154
vt 0.730835 0.463661
vt 0.482055 0.974224
vt 0.448944 0.766145
vt 0.484424 0.610287
vt 0.685895 0.706127
vt 0.589096 0.519776
vt 0.731020 0.479401
vt 0.502229 0.968129
vt 0.464598 0.765051
vt 0.498468 0.616403
vt 0.920764 0.503423
vt 0.924572 0.482283
vt 0.059854 0.915399
vn -0.309017 0.000000 -0.951057
vn -0.309017 0.000000 -0.951057
vn -0.309017 0.000000 -0.951057
vn -0.309017 0.000000 -0.951057
vn -1.000000 0.000000 0.000000
vn -1.000000 0.000000 0.000000
vn -1.000000 0.000000 0.000000
vn -1.000000 0.000000 0.000000
vn -0.309017 0.000000 0.951057
vn -0.309017 0.000000 0.951057
vn -0.309017 0.000000 0.951057
vn -0.309017 0.000000 0.951057
vn 0.809017 0.000000 0.587785
vn 0.809017 0.000000 0.587785
vn 0.809017 0.000000 0.587785
vn 0.809017 0.000000 0.587785
vn 0.809017 0.000000 -0.587785
vn 0.809017 0.000000 -0.587785
vn 0.809017 0.000000 -0.587785
vn 0.809017 0.000000 -0.587785
vn 0.269943 0.486728 -0.830799
vn -0.706720 0.486728 -0.513462
vn -0.000000 1.000000 0.000000
vn -0.706720 0.486728 0.513462
vn 0.269943 0.486728 0.830799
vn 0.873554 0.486728 0.000000
vn -0.309017 0.000000 -0.951057
vn -0.309017 0.000000 -0.951057
vn -0.309017 0.000000 -0.951057
vn -0.309017 0.000000 -0.951057
vn -1.000000 -0.000000 0.000000
vn -1.000000 -0.000000 0.000000
vn -1.000000 -0.000000 0.000000
vn -1.000000 -0.000000 0.000000
vn -0.309016 0.000000 0.951057
vn -0.309016 0.000000 0.951057
vn -0.309016 0.000000 0.951057
vn -0.309016 0.000000 0.951057
vn 0.809017 0.000000 0.587785
vn 0.809017 0.000000 0.587785
vn 0.809017 0.000000 0.587785
vn 0.809017 0.000000 0.587785
vn 0.809017 0.000000 -0.587785
vn 0.809017 0.000000 -0.587785
vn 0.809017 0.000000 -0.587785
vn 0.809017 0.000000 -0.587785
s off
g pCylinder2
usemtl initialShadingGroup
f 1/1/1 2/2/2 7/7/3 6/6/4
f 2/2/5 3/3/6 8/18/7 7/7/8
f 3/19/9 4/4/10 9/9/11 8/8/12
f 4/4/13 5/5/14 10/10/15 9/9/16
f 5/5/17 1/1/18 6/6/19 10/10/20
s 1
f 11/12/21 12/13/22 13/11/23
f 12/13/22 14/17/24 13/11/23
f 14/14/24 15/15/25 13/11/23
f 15/15/25 16/16/26 13/11/23
f 16/16/26 11/12/21 13/11/23
s off
f 6/6/27 7/7/28 12/13/29 11/12/30
f 7/7/31 8/18/32 14/17/33 12/13/34
f 8/8/35 9/9/36 15/15/37 14/14/38
f 9/9/39 10/10/40 16/16/41 15/15/42
f 10/10/43 6/6/44 11/12/45 16/16/46
