# This file uses centimeters as units for non-parametric coordinates.

mtllib grass1.mtl
g default
v -23.656340 -3.656341 -11.000004
v 15.656339 -3.656341 -11.000004
v -23.656340 35.656354 -11.000000
v 15.656339 35.656354 -11.000000
v -4.000000 -3.656341 -5.889851
v -4.000000 35.656354 -5.889848
vt 0.193275 0.692816
vt 0.507736 0.692816
vt 0.193275 0.984486
vt 0.507736 0.984486
vt 0.350506 0.692816
vt 0.350506 0.984486
vn -0.251611 -0.000000 0.967829
vn 0.000000 -0.000000 1.000000
vn 0.000000 -0.000000 1.000000
vn -0.251611 -0.000000 0.967829
vn 0.251611 -0.000000 0.967829
vn 0.251611 -0.000000 0.967829
s 1
g pPlane1
usemtl lambert2SG
f 1/1/1 5/5/2 6/6/3 3/3/4
f 6/6/3 5/5/2 2/2/5 4/4/6
